<?xml version="1.0" standalone="no"?>
<!DOCTYPE svg PUBLIC "-//W3C//DTD SVG 20010904//EN"
 "http://www.w3.org/TR/2001/REC-SVG-20010904/DTD/svg10.dtd">
<svg version="1.0" xmlns="http://www.w3.org/2000/svg"
 width="1832.000000pt" height="1758.000000pt" viewBox="0 0 1832.000000 1758.000000"
 preserveAspectRatio="xMidYMid meet">

<g transform="translate(0.000000,1758.000000) scale(0.100000,-0.100000)"
fill="#000000" stroke="none">
<path d="M0 8790 l0 -8790 4303 0 4303 0 43 77 c24 43 54 92 65 108 12 17 40
60 61 97 22 37 46 68 53 68 7 0 30 -9 52 -20 79 -41 139 -50 226 -35 43 8 81
11 85 7 5 -7 26 -140 38 -247 l6 -50 4354 -3 4353 -2 -6 477 c-4 263 -11 504
-17 537 -7 42 -7 78 1 125 7 42 12 273 14 636 2 512 4 577 20 635 22 79 35 94
84 95 20 1 92 2 160 3 l122 2 0 55 c0 106 -60 157 -114 99 l-24 -27 -43 37
c-45 38 -54 42 -63 27 -12 -18 -67 13 -83 46 -20 44 -52 42 -59 -4 -1 -6 -7
-35 -14 -65 -12 -55 -16 -118 -28 -498 l-7 -225 -102 -3 c-85 -2 -103 0 -103
12 0 8 -10 23 -23 33 -13 10 -26 26 -30 36 -4 12 -17 17 -41 17 -19 0 -38 4
-41 10 -3 5 -17 10 -31 10 -14 0 -22 -4 -19 -10 3 -5 2 -17 -3 -27 -9 -14 -11
-13 -22 7 -16 30 -45 54 -89 76 -23 11 -30 19 -21 24 7 5 10 15 6 25 -4 13 -2
16 9 11 9 -3 15 0 15 9 0 11 -12 15 -47 15 -27 0 -61 7 -76 15 -16 8 -36 14
-45 13 -40 -3 -73 3 -67 12 4 6 -6 10 -24 10 -16 0 -33 5 -36 11 -4 5 -17 9
-30 7 -12 -1 -28 2 -36 9 -8 6 -29 13 -48 15 -19 2 -36 8 -38 14 -4 13 60 26
65 13 2 -5 12 -9 23 -9 14 0 19 7 19 25 0 14 -4 25 -10 25 -5 0 -12 11 -16 24
-5 22 -10 23 -126 29 -112 7 -121 9 -140 32 -23 30 -48 33 -48 5 0 -17 -7 -20
-52 -20 -34 0 -58 -6 -70 -17 -17 -15 -19 -15 -37 6 -12 13 -32 23 -50 23 -33
1 -38 7 -19 26 9 9 7 13 -5 18 -24 9 -21 24 5 24 17 0 19 3 10 12 -9 9 -17 9
-36 -1 -13 -8 -29 -10 -35 -6 -7 4 -37 8 -68 9 -49 3 -54 1 -37 -10 10 -7 24
-18 31 -24 7 -6 17 -9 22 -8 8 3 11 -2 11 -17 0 -3 -15 2 -32 12 -18 9 -36 16
-40 15 -5 -1 -8 3 -8 8 0 6 -6 10 -14 10 -8 0 -17 7 -20 16 -4 10 -13 13 -25
9 -16 -5 -18 -2 -14 15 5 20 -12 29 -19 9 -2 -6 -11 -7 -22 -3 -19 7 -19 8 0
16 16 6 15 7 -6 5 -14 -1 -56 15 -95 35 -38 20 -110 58 -160 83 -49 26 -92 50
-95 53 -3 4 -26 18 -52 32 -27 13 -48 28 -48 33 0 4 5 5 10 2 6 -3 10 1 10 11
0 12 6 15 25 12 17 -4 25 -1 25 8 0 8 -11 14 -25 14 -14 0 -25 -3 -25 -8 0 -4
-9 -13 -21 -20 -18 -11 -25 -10 -47 5 -15 10 -39 23 -54 30 -16 7 -28 17 -28
23 0 5 -7 10 -16 10 -8 0 -25 5 -37 12 -21 11 -21 11 -2 18 19 8 19 8 1 15
-11 5 -21 3 -25 -4 -13 -21 -41 0 -51 40 -10 35 -30 55 -30 29 0 -5 5 -10 10
-10 6 0 10 -9 10 -20 0 -11 -3 -20 -8 -20 -4 0 -13 9 -20 20 -7 11 -23 20 -37
20 -15 0 -28 7 -32 18 -8 21 -23 32 -43 32 -13 0 -13 -1 0 -10 8 -5 10 -10 4
-10 -7 0 -22 9 -35 20 -20 16 -21 19 -6 20 9 0 17 5 17 10 0 16 30 12 36 -5 4
-10 15 -12 34 -9 35 7 48 -11 19 -27 -17 -9 -19 -13 -8 -20 21 -13 29 -11 29
10 0 10 6 21 14 24 14 6 16 30 4 42 -3 4 -23 2 -45 -4 -25 -7 -39 -7 -41 -1
-5 15 -44 12 -66 -5 -26 -19 -50 -19 -43 -1 4 10 1 13 -7 10 -7 -3 -18 2 -25
10 -7 8 -28 20 -47 26 -19 7 -32 15 -29 20 3 5 0 12 -6 16 -6 3 -14 1 -18 -5
-5 -8 -13 -7 -27 4 -18 13 -18 14 6 8 23 -6 24 -5 11 10 -8 10 -25 16 -39 15
-14 -2 -27 2 -29 7 -2 7 12 9 37 7 22 -2 40 -9 40 -14 0 -7 4 -7 13 0 6 5 23
12 37 14 23 3 25 7 24 51 0 56 -22 78 -69 70 -25 -4 -37 2 -68 30 -20 20 -37
43 -37 51 0 9 -11 18 -25 22 -23 6 -25 11 -25 60 0 30 -4 54 -10 54 -5 0 -10
-25 -10 -55 l0 -55 -50 0 c-27 0 -50 4 -50 9 0 25 14 41 36 41 20 0 24 5 24
29 0 28 -1 28 -77 35 -42 3 -93 6 -115 6 l-38 0 0 55 0 55 -115 0 -115 0 0 56
0 56 -57 -4 -58 -3 3 87 3 88 -55 0 c-56 0 -56 0 -56 30 0 27 -3 30 -30 30
-30 0 -30 1 -30 55 0 54 0 55 -30 55 -27 0 -30 3 -30 30 0 30 -1 30 -55 30
-53 0 -55 1 -56 28 l-1 27 -7 -30 c-3 -16 -10 -29 -14 -27 -4 1 -25 2 -47 2
-33 0 -40 3 -40 19 0 11 6 22 13 24 6 3 -19 3 -56 0 -53 -5 -71 -3 -78 8 -6
10 -9 10 -9 2 0 -7 -7 -13 -15 -13 -8 0 -15 -4 -15 -10 0 -14 13 -13 28 2 9 9
12 9 12 -3 0 -9 -12 -26 -26 -38 -25 -22 -26 -22 -19 -2 6 20 -10 31 -17 11
-2 -6 -9 -6 -18 0 -12 7 -10 12 9 30 26 22 22 41 -5 19 -14 -11 -17 -10 -25 4
-6 9 -15 17 -22 17 -7 0 -6 -4 3 -10 8 -5 12 -12 9 -15 -4 -3 -11 1 -17 8 -9
10 -7 19 5 36 12 18 22 22 44 17 33 -6 49 14 49 63 0 19 5 31 13 31 8 0 13 11
12 27 0 21 -6 29 -23 31 -13 2 -25 -3 -28 -12 -8 -20 -75 -22 -105 -3 -17 10
-23 10 -26 0 -7 -20 -31 -15 -38 7 -3 11 -13 20 -21 20 -8 0 -14 7 -14 16 0 9
-14 36 -30 61 -17 24 -30 50 -30 58 0 7 -5 15 -12 17 -7 3 -11 22 -10 49 2 41
0 46 -33 63 -34 18 -37 19 -71 3 -19 -9 -44 -17 -55 -17 -11 0 -30 -5 -42 -12
-12 -7 -28 -13 -36 -14 -22 -4 -35 7 -20 17 10 6 7 9 -11 9 -18 0 -21 3 -12
12 9 9 18 9 38 -1 16 -7 31 -8 38 -2 6 5 27 12 46 16 38 8 62 23 56 34 -3 4 4
13 16 20 18 11 19 10 13 -8 -9 -29 7 -32 45 -8 l35 22 -33 5 c-34 5 -45 24
-14 26 36 2 42 4 42 15 0 6 -9 8 -22 4 -17 -6 -20 -4 -14 10 3 10 1 24 -5 31
-9 11 -8 14 5 14 9 0 16 -7 16 -15 0 -8 5 -15 10 -15 6 0 10 9 10 20 0 11 -7
20 -15 20 -8 0 -15 5 -15 10 0 6 23 10 52 10 40 0 49 -3 40 -12 -8 -8 -12 -50
-12 -125 0 -95 2 -113 15 -113 9 0 18 -7 21 -15 18 -45 25 -1 23 143 0 86 2
185 6 218 7 59 6 62 -16 70 -13 4 -27 7 -31 6 -5 -1 -8 7 -8 17 0 11 -4 23
-10 26 -5 3 -9 14 -9 23 1 15 2 15 6 -1 2 -9 9 -17 14 -17 5 0 7 11 3 25 -4
15 -2 25 5 25 6 0 8 7 5 15 -9 22 -54 18 -99 -10 -46 -29 -70 -32 -79 -9 -11
28 67 80 101 67 13 -5 15 -2 10 11 -4 10 -7 38 -7 62 0 44 0 44 -35 44 -19 0
-35 -4 -35 -10 0 -15 -19 -12 -36 4 -11 12 -14 51 -14 185 0 136 -3 171 -13
171 -20 0 -97 74 -97 93 0 15 -15 17 -115 17 -96 0 -115 3 -115 15 0 12 -13
15 -55 15 l-55 0 -6 40 c-6 34 -10 40 -30 40 -22 0 -24 4 -24 54 0 30 4 57 10
61 5 3 7 12 4 19 -3 8 3 16 14 18 14 4 19 1 18 -11 -1 -9 8 -17 22 -19 12 -2
22 -7 22 -12 0 -5 7 -7 15 -4 8 4 21 2 28 -3 6 -5 32 -15 56 -22 34 -10 41
-15 30 -23 -10 -7 -2 -8 26 -4 22 3 34 3 28 0 -27 -12 -12 -25 22 -18 31 5 35
4 35 -15 0 -15 6 -21 21 -21 15 0 19 4 15 16 -5 13 -3 14 6 7 7 -5 34 -17 61
-27 46 -17 63 -36 32 -36 -8 0 -15 -4 -15 -10 0 -5 8 -10 18 -10 10 0 31 -13
47 -30 16 -16 38 -30 49 -30 18 0 19 2 6 11 -11 8 -3 9 33 5 32 -4 46 -2 42 4
-4 7 7 10 29 8 38 -2 60 10 48 27 -11 16 -62 41 -122 60 -30 10 -84 33 -119
52 -64 34 -131 83 -113 83 12 0 23 40 15 53 -4 6 -10 1 -14 -11 -5 -12 -15
-22 -23 -22 -15 0 -66 55 -66 71 0 6 -5 7 -12 3 -7 -5 -9 -2 -5 9 6 16 -15 41
-26 30 -7 -6 -11 12 -8 30 1 4 -6 10 -14 13 -8 3 -12 10 -9 15 3 5 -6 14 -19
20 -23 10 -51 62 -48 87 1 6 -3 12 -9 12 -5 0 -10 10 -10 21 0 12 -8 28 -17
35 -10 7 -14 16 -10 20 4 5 12 2 16 -5 5 -7 14 -10 20 -7 6 4 11 0 11 -8 0 -9
5 -16 10 -16 6 0 10 6 10 14 0 8 2 20 3 28 2 7 2 10 0 6 -9 -16 -23 -7 -23 15
-1 20 -1 21 -11 4 -10 -18 -12 -18 -30 -1 -10 9 -19 27 -19 39 0 13 -6 28 -14
34 -7 6 -16 33 -20 60 -4 27 -10 51 -15 53 -5 2 -16 66 -26 143 -13 114 -16
208 -13 510 4 366 8 424 50 715 34 240 64 381 103 480 20 52 50 131 66 175 16
44 33 89 39 100 20 43 80 200 80 210 0 6 11 33 24 61 13 27 31 73 40 102 10
28 21 52 26 52 5 0 7 -48 5 -107 -3 -60 -7 -191 -10 -293 -3 -109 -13 -228
-24 -290 -10 -58 -26 -150 -35 -205 -10 -55 -21 -107 -26 -116 -5 -9 -12 -34
-16 -55 -3 -22 -10 -43 -14 -49 -4 -5 -22 -50 -39 -100 -18 -49 -43 -110 -57
-134 -50 -91 -11 -132 43 -44 41 68 83 160 83 183 0 11 4 20 8 20 5 0 13 19
19 43 6 23 22 85 36 137 14 52 29 118 33 145 5 38 16 61 46 95 40 45 127 180
165 255 26 50 118 326 138 412 17 71 35 254 35 349 0 33 6 68 13 77 11 15 16
10 42 -40 17 -31 44 -79 61 -106 18 -26 47 -83 64 -125 18 -42 52 -117 75
-167 23 -49 49 -106 58 -125 9 -19 30 -75 47 -125 17 -49 43 -124 58 -165 25
-71 27 -84 26 -260 -1 -170 -3 -193 -28 -280 -15 -52 -31 -108 -35 -125 -23
-82 -152 -300 -186 -314 -21 -9 -76 -73 -72 -84 2 -7 14 -13 26 -15 19 -3 40
9 106 60 6 4 42 32 81 62 89 69 196 200 244 301 l14 30 4 -35 c6 -49 -18 -195
-40 -253 -23 -61 -23 -77 2 -77 17 0 72 66 148 177 6 10 33 47 58 83 25 36 54
83 64 105 18 39 87 233 116 325 31 102 44 138 68 197 22 52 51 153 95 339 67
277 18 958 -93 1294 -38 117 -85 238 -122 317 -13 28 -24 55 -24 59 0 3 -32
70 -70 148 -110 221 -145 282 -277 484 -52 79 -92 146 -90 149 3 2 14 0 24 -5
29 -16 169 -51 241 -62 37 -5 130 -14 207 -20 122 -9 155 -7 255 9 117 20 181
38 202 59 17 17 -55 15 -167 -3 -133 -23 -162 -16 -363 86 -97 49 -181 89
-189 89 -7 0 -13 4 -13 9 0 5 -13 14 -29 19 -29 10 -254 147 -343 209 -26 18
-52 33 -57 33 -5 0 -11 3 -13 8 -1 4 -30 24 -62 46 -97 63 -132 105 -140 167
-4 30 -13 77 -21 104 -8 28 -24 84 -35 125 -11 41 -25 84 -30 95 -6 11 -28 67
-49 125 -22 58 -51 127 -65 153 -14 26 -26 53 -26 58 0 11 -32 87 -53 129 -38
73 -91 167 -102 180 -17 22 -49 112 -47 135 1 15 -1 16 -7 6 -9 -14 -31 -7
-31 11 0 5 -14 28 -31 49 -18 23 -27 44 -23 51 4 7 3 10 -1 5 -9 -7 -84 136
-85 161 0 7 -7 15 -15 18 -8 4 -15 12 -15 19 0 15 -30 75 -30 60 0 -5 -10 5
-21 22 -18 29 -25 48 -28 76 -1 4 -8 7 -17 7 -10 0 -14 6 -11 14 3 7 0 19 -6
25 -8 8 -8 14 0 22 9 9 18 8 36 -4 23 -15 25 -15 30 3 3 11 -1 21 -9 24 -9 4
-14 22 -14 56 0 36 -4 50 -14 50 -12 0 -26 20 -26 36 0 2 103 4 229 4 l229 0
7 210 8 210 48 0 c48 0 49 -1 49 -30 0 -22 5 -30 18 -30 20 0 52 29 52 48 0 6
12 12 27 14 18 2 29 10 32 23 2 11 14 29 27 40 13 11 24 26 24 33 0 7 5 12 10
12 6 0 10 24 10 54 0 63 4 66 91 66 l59 0 0 85 0 85 55 0 c52 0 55 1 55 25 0
22 4 24 58 27 54 3 57 4 60 31 l3 27 110 0 109 0 1 88 c1 48 1 104 0 124 l-3
37 59 3 c51 3 58 6 61 26 3 20 9 22 61 22 52 0 59 3 79 30 12 16 22 38 22 50
0 16 6 20 35 20 30 0 35 3 35 24 0 23 3 24 110 31 97 6 110 9 110 25 0 14 11
20 43 25 101 15 95 11 99 71 2 38 -1 54 -9 54 -9 0 -13 18 -13 55 l0 55 55 0
c54 0 55 0 55 30 0 30 1 30 55 30 l55 0 0 -60 c0 -60 0 -61 23 -49 33 18 37
28 37 102 l0 67 -82 0 c-45 0 -79 2 -76 6 3 3 53 5 112 5 98 0 106 1 106 19 0
16 9 19 58 22 53 3 57 5 60 29 2 17 11 29 23 32 16 4 19 14 19 56 l0 51 93 1
c50 1 80 4 65 6 -28 4 -30 8 -30 38 0 69 2 75 27 75 24 0 25 3 25 54 0 52 1
55 28 58 l27 3 3 113 3 112 29 0 30 0 0 115 0 115 85 0 85 0 0 54 c0 30 -4 58
-10 61 -11 7 -14 74 -4 99 4 12 20 16 55 16 l49 0 0 -109 c0 -63 4 -112 10
-116 12 -7 13 115 4 253 -6 83 -9 92 -27 92 -18 0 -17 2 6 20 14 11 28 20 31
20 16 0 48 46 53 76 l6 35 22 -21 c25 -24 30 -20 60 44 16 36 16 40 1 51 -11
8 -16 27 -16 58 l0 46 58 3 57 3 3 50 c2 30 9 53 18 58 9 5 14 25 14 61 0 45
3 54 20 59 17 4 20 14 20 66 l0 61 -3485 0 -3485 0 -2 -407 c-2 -225 -2 -486
-1 -582 l3 -173 -48 7 c-26 4 -54 11 -62 15 -9 5 -47 15 -85 24 -39 8 -97 23
-130 32 -71 19 -165 41 -330 78 -66 14 -138 31 -160 36 -52 12 -259 38 -400
51 -120 11 -263 5 -420 -16 -55 -7 -131 -16 -170 -20 -38 -3 -113 -15 -165
-26 -52 -12 -139 -25 -193 -29 -54 -5 -112 -12 -131 -15 l-32 -7 -12 149 c-6
81 -19 182 -28 223 -17 76 -16 264 3 558 l6 102 -3482 0 -3481 0 0 -8790z
m5069 8109 c-18 -30 -38 -61 -44 -69 -6 -8 -22 -40 -34 -70 -13 -30 -36 -83
-52 -116 -32 -69 -43 -99 -99 -264 -48 -141 -65 -216 -79 -345 -7 -55 -14
-115 -16 -133 -10 -80 44 -319 96 -426 10 -22 19 -44 19 -48 0 -5 9 -30 21
-55 11 -25 18 -47 15 -50 -11 -11 -48 11 -103 65 -86 84 -152 228 -184 404
-10 52 -10 89 0 165 17 149 54 301 93 390 10 24 18 47 18 53 0 6 4 18 9 28 5
9 26 51 47 92 57 116 97 176 217 334 32 42 98 108 104 103 2 -3 -10 -29 -28
-58z m3281 -334 c220 -26 556 -98 775 -166 33 -10 89 -27 125 -38 298 -90 441
-142 575 -207 60 -30 114 -54 120 -54 21 -1 60 -39 50 -49 -11 -10 -245 2
-360 20 -208 32 -292 48 -420 84 -135 37 -213 58 -265 71 -155 38 -387 105
-409 118 -12 8 -314 84 -396 100 -122 23 -304 54 -365 61 -30 4 -64 9 -75 11
-11 2 -65 8 -120 15 -55 6 -108 12 -117 13 -10 1 -20 5 -23 8 -6 6 171 26 280
32 136 8 489 -3 625 -19z m-795 -85 c61 -5 142 -15 180 -21 164 -25 301 -51
320 -59 26 -12 308 -84 410 -105 99 -21 210 -52 252 -71 17 -8 37 -14 45 -14
8 0 18 -4 24 -9 17 -17 275 -81 522 -130 454 -90 613 -106 997 -97 181 4 292
11 335 21 77 17 80 17 80 7 0 -4 -24 -16 -52 -26 -29 -10 -66 -24 -83 -31 -86
-35 -116 -46 -185 -64 -147 -39 -267 -51 -501 -51 -227 0 -343 11 -497 47 -52
12 -75 14 -83 6 -6 -6 -8 -16 -5 -21 8 -14 125 -49 206 -62 165 -28 226 -32
425 -27 206 5 347 23 490 61 32 8 58 10 73 5 28 -11 135 -83 159 -108 10 -10
41 -33 68 -51 28 -18 65 -46 82 -61 18 -16 57 -44 86 -62 29 -19 61 -42 71
-53 11 -10 49 -44 86 -74 188 -155 257 -217 423 -384 214 -213 344 -357 436
-481 25 -33 48 -61 53 -63 4 -2 8 -8 8 -13 0 -5 22 -40 50 -79 27 -38 63 -93
80 -122 17 -29 35 -60 40 -68 6 -8 63 -105 128 -215 148 -251 227 -406 296
-583 30 -76 64 -159 77 -183 55 -109 134 -386 145 -510 l6 -74 -20 20 c-30 30
-236 267 -252 291 -8 12 -32 41 -53 65 -45 52 -154 195 -215 282 -24 34 -67
94 -96 132 -28 39 -80 115 -114 170 -97 157 -136 210 -154 213 -21 4 -24 -27
-7 -61 23 -44 259 -395 274 -407 8 -7 15 -19 15 -26 0 -8 4 -14 8 -14 5 0 39
-45 77 -100 38 -55 72 -100 77 -100 4 0 8 -6 8 -14 0 -7 7 -20 16 -27 9 -8 59
-66 110 -129 176 -217 229 -276 494 -540 264 -265 289 -288 365 -345 51 -38
63 -48 103 -80 27 -22 174 -130 249 -183 156 -109 561 -349 703 -415 43 -20
59 -32 47 -35 -54 -12 -378 58 -457 98 -21 11 -50 34 -66 52 -52 58 -298 312
-325 335 -41 35 -59 39 -59 13 0 -14 46 -68 136 -160 75 -76 144 -150 154
-165 9 -14 25 -34 36 -44 61 -58 219 -287 299 -432 57 -103 132 -240 148 -269
85 -152 170 -343 203 -455 9 -27 19 -59 24 -70 24 -60 98 -454 109 -585 15
-175 24 -494 16 -536 -13 -72 -27 -9 -36 160 -4 89 -15 197 -24 241 -42 206
-83 380 -95 404 -4 9 -13 36 -20 61 -12 46 -50 151 -74 205 -66 147 -204 414
-233 450 -5 6 -20 30 -35 55 -31 54 -63 84 -77 75 -20 -12 -11 -40 31 -106 51
-78 260 -489 277 -544 7 -22 19 -54 27 -72 8 -17 14 -38 14 -48 0 -9 6 -28 14
-43 16 -31 70 -246 87 -342 6 -36 15 -87 20 -115 32 -181 34 -643 3 -791 -8
-38 -21 -109 -29 -159 -7 -49 -23 -117 -35 -150 -12 -33 -25 -77 -31 -97 -9
-39 -21 -67 -75 -186 -19 -40 -34 -80 -34 -88 0 -7 -4 -14 -10 -14 -5 0 -10
-5 -10 -11 0 -6 -12 -26 -28 -43 l-27 -31 -2 173 c-3 179 -8 202 -43 202 -17
0 -40 -44 -40 -76 0 -8 -13 -42 -28 -76 -16 -35 -35 -79 -42 -98 -18 -46 -60
-113 -67 -107 -2 3 7 43 20 89 15 47 33 149 42 237 15 129 16 172 6 270 -39
395 -73 549 -172 786 -22 53 -49 131 -49 143 0 8 -13 43 -30 79 -16 35 -30 67
-30 71 0 21 -98 201 -130 239 -5 7 -10 15 -10 19 0 3 -15 32 -34 63 -18 31
-50 88 -71 126 -37 69 -103 175 -154 248 -14 21 -31 45 -36 55 -14 23 -78 118
-115 170 -16 23 -30 45 -30 48 0 10 -124 165 -186 234 -68 74 -352 354 -404
396 -19 16 -50 44 -70 61 -35 33 -70 43 -70 22 0 -6 19 -33 41 -61 23 -27 39
-51 36 -54 -3 -3 -31 -11 -63 -19 -58 -13 -84 -8 -84 17 0 5 -13 28 -28 51
-67 99 -100 173 -116 263 -15 82 -34 181 -56 294 -15 74 -58 270 -73 335 -8
33 -28 101 -45 150 -17 50 -39 113 -48 140 -9 28 -34 102 -56 165 -22 63 -51
151 -65 195 -28 93 -83 226 -124 305 -16 30 -38 78 -50 105 -73 174 -285 558
-373 679 -102 141 -146 199 -185 246 -59 72 -188 200 -201 200 -25 0 -6 -45
38 -93 60 -65 197 -234 248 -307 113 -163 153 -224 203 -310 79 -139 203 -391
245 -500 21 -52 41 -104 46 -115 32 -72 50 -119 50 -126 0 -4 13 -36 29 -71
51 -112 106 -286 156 -488 18 -74 49 -191 70 -260 58 -194 65 -227 80 -345 8
-60 23 -171 35 -245 29 -187 41 -292 35 -298 -18 -18 -474 106 -530 144 -11 8
-30 14 -43 14 -34 0 -344 156 -363 182 -8 13 -28 55 -44 93 -16 39 -32 75 -35
80 -4 6 -17 39 -30 75 -13 36 -26 70 -30 75 -4 6 -34 62 -67 125 -33 63 -79
145 -101 183 -23 37 -42 71 -42 76 0 9 -221 344 -280 423 -162 220 -229 298
-420 491 -159 159 -210 200 -210 166 0 -14 83 -111 173 -202 37 -37 67 -70 67
-72 0 -2 17 -21 38 -43 112 -118 288 -339 377 -472 28 -41 53 -77 56 -80 3 -3
26 -37 50 -75 24 -39 50 -79 57 -90 6 -11 20 -35 29 -52 9 -18 20 -33 25 -33
4 0 8 -4 8 -10 0 -5 63 -138 141 -296 155 -316 163 -334 149 -334 -15 0 -291
182 -361 238 -25 20 -70 57 -100 81 -51 41 -112 94 -257 224 -47 41 -72 57
-93 57 -16 0 -29 -3 -29 -6 0 -8 139 -146 174 -172 17 -12 54 -44 81 -71 50
-48 338 -271 350 -271 4 0 39 -22 78 -48 40 -27 92 -59 117 -73 25 -13 51 -30
58 -36 7 -7 17 -13 22 -13 5 0 15 -7 24 -15 32 -32 245 -134 466 -223 130 -53
303 -93 453 -105 75 -6 137 -14 137 -18 0 -9 -187 -99 -205 -99 -4 0 -21 -6
-38 -14 -108 -48 -428 -77 -650 -57 -77 6 -145 15 -151 20 -6 5 -28 11 -49 15
-25 5 -73 33 -139 82 -96 71 -126 84 -135 57 -4 -12 36 -58 74 -83 12 -8 77
-58 145 -110 110 -84 290 -187 404 -231 69 -26 -11 -17 -146 16 -36 9 -101 24
-145 34 -44 10 -89 22 -100 28 -11 5 -56 20 -100 32 -44 12 -89 26 -100 31
-11 5 -31 11 -45 13 -63 12 -333 117 -435 169 -33 17 -89 41 -124 55 -56 21
-337 162 -395 198 -24 14 -202 108 -316 166 -42 21 -85 47 -95 57 -38 34 -110
79 -175 108 -91 40 -120 58 -253 154 -240 173 -291 207 -447 298 -41 24 -77
46 -80 50 -3 4 -37 28 -75 53 -39 26 -98 70 -130 99 -53 46 -100 81 -154 115
-17 11 -107 80 -131 102 -8 8 -45 36 -81 63 -37 27 -116 96 -175 153 -181 173
-276 262 -334 312 -30 26 -149 143 -265 259 -180 181 -257 257 -358 354 -70
66 -170 170 -235 242 -43 47 -130 139 -194 205 -95 97 -201 219 -311 355 -119
147 -192 244 -307 407 -45 65 -125 175 -158 218 -4 6 -19 28 -32 50 -56 92
-183 266 -201 276 -22 11 -39 5 -39 -15 0 -7 43 -75 95 -152 52 -76 115 -170
141 -209 26 -38 52 -75 58 -81 6 -7 40 -53 76 -104 96 -135 282 -382 305 -405
41 -42 107 -125 97 -125 -14 0 -297 289 -329 336 -15 23 -61 77 -102 120 -41
44 -98 113 -128 154 -30 41 -72 98 -94 125 -21 28 -60 82 -85 120 -158 240
-210 315 -222 315 -7 0 -17 -12 -23 -27 -25 -62 -33 -77 -72 -136 -28 -42 -49
-169 -50 -302 -1 -112 8 -176 48 -335 13 -52 -24 11 -41 69 -46 159 -60 390
-30 503 52 197 131 288 340 393 89 45 128 59 215 74 214 39 238 38 721 -14
215 -23 448 -103 675 -232 22 -12 67 -35 100 -51 33 -16 88 -50 123 -76 34
-25 65 -46 68 -46 15 0 146 -94 199 -144 33 -30 63 -56 67 -56 4 0 52 -39 106
-87 55 -49 111 -97 125 -108 122 -98 214 -183 418 -385 130 -129 272 -269 315
-311 94 -91 197 -199 190 -199 -2 0 8 -12 22 -28 48 -49 256 -278 286 -313 15
-19 44 -52 65 -74 20 -22 58 -67 86 -100 27 -33 71 -82 96 -110 26 -27 73 -81
105 -119 61 -72 178 -202 223 -247 14 -14 58 -61 96 -104 39 -43 94 -104 123
-134 30 -31 77 -83 105 -116 96 -110 303 -315 320 -315 37 0 14 43 -76 137
-51 54 -113 120 -137 147 -85 92 -113 121 -194 206 -118 125 -268 288 -311
340 -20 25 -49 56 -63 70 -24 22 -120 132 -222 254 -56 67 -224 258 -268 306
-23 24 -42 47 -42 52 0 4 -21 29 -47 55 -27 26 -77 80 -112 118 -186 204 -285
308 -480 502 -117 118 -211 216 -208 219 6 6 255 -86 305 -112 15 -7 31 -14
36 -14 11 0 323 -157 356 -179 14 -10 63 -37 110 -60 83 -42 146 -86 263 -184
23 -19 174 -158 236 -217 187 -177 318 -298 344 -317 34 -26 67 -30 67 -9 0
16 -142 157 -365 361 -61 55 -135 123 -165 151 -30 28 -80 72 -110 98 -30 26
-64 55 -75 65 -11 10 -36 29 -55 42 -19 13 -76 55 -127 94 -121 92 -168 126
-277 198 -50 33 -111 77 -136 98 -25 20 -76 53 -115 74 -38 21 -75 41 -80 46
-6 4 -71 39 -145 77 -74 38 -161 83 -192 100 -55 30 -105 47 -233 78 -78 19
-197 65 -215 84 -3 3 -16 13 -30 22 -39 26 -109 78 -193 141 -42 31 -78 57
-81 57 -3 0 -64 36 -135 80 -72 44 -134 80 -138 80 -5 0 -19 6 -33 13 -81 42
-211 78 -441 122 -226 43 -343 53 -614 54 -157 0 -209 3 -207 12 15 62 209
278 334 373 65 50 396 216 429 216 12 0 156 45 194 60 20 8 87 26 205 56 36 9
94 20 130 24 99 11 442 11 565 0z m7873 -507 c-16 -2 -40 -2 -55 0 -16 2 -3 4
27 4 30 0 43 -2 28 -4z m-665 -570 c-7 -2 -19 -2 -25 0 -7 3 -2 5 12 5 14 0
19 -2 13 -5z m-9732 -503 c16 -114 46 -215 95 -319 24 -52 42 -96 39 -99 -2
-3 -28 1 -57 8 -65 16 -130 16 -270 2 -101 -10 -155 -27 -212 -64 -11 -7 -45
-29 -76 -48 -31 -19 -74 -55 -95 -80 -22 -25 -46 -51 -53 -59 -8 -8 -32 -42
-54 -77 -27 -42 -56 -72 -90 -93 -55 -35 -106 -76 -204 -163 -68 -62 -85 -72
-62 -35 8 12 25 40 38 62 21 35 85 121 101 135 3 3 16 23 29 45 38 62 140 155
250 227 67 44 94 73 85 88 -13 22 -63 2 -137 -54 -40 -31 -73 -54 -75 -52 -15
15 161 269 257 370 75 79 275 231 379 288 l86 46 8 -26 c4 -15 12 -61 18 -102z
m802 -322 c27 -29 72 -80 99 -113 28 -33 116 -129 197 -214 80 -85 159 -169
175 -187 52 -62 210 -219 259 -258 26 -21 47 -44 47 -50 0 -30 41 -92 183
-276 60 -78 65 -86 82 -112 13 -19 128 -171 135 -178 3 -3 28 -33 54 -68 26
-35 58 -73 71 -85 12 -12 42 -47 67 -77 99 -123 364 -397 487 -503 46 -39 89
-77 96 -84 6 -6 41 -35 76 -63 35 -29 71 -61 80 -70 22 -25 52 -29 57 -8 4 20
-74 100 -213 218 -135 114 -379 360 -504 509 -57 67 -114 134 -127 149 -30 34
-31 36 -82 102 -23 30 -60 78 -82 105 -22 28 -48 61 -58 75 -24 36 -179 242
-193 258 -6 7 -8 16 -5 19 11 11 81 -47 177 -144 124 -126 427 -428 476 -473
21 -20 92 -93 158 -163 66 -70 161 -160 210 -199 50 -40 92 -75 95 -78 3 -3
21 -18 40 -34 19 -15 76 -67 126 -115 125 -119 275 -232 393 -297 19 -11 74
-48 123 -84 48 -36 128 -94 178 -130 50 -36 101 -73 113 -83 26 -22 132 -87
141 -87 4 0 22 -11 39 -24 18 -13 55 -36 82 -51 28 -15 93 -55 145 -89 52 -35
121 -80 154 -100 71 -46 244 -146 251 -146 3 0 69 -40 146 -90 78 -49 230
-133 338 -186 376 -184 351 -168 351 -227 0 -44 16 -43 -130 -13 -131 27 -214
46 -240 55 -14 5 -61 19 -105 31 -44 12 -89 26 -100 31 -11 4 -38 13 -60 19
-51 15 -198 70 -295 109 -41 17 -78 31 -82 31 -11 0 -229 101 -238 110 -3 3
-48 27 -100 54 -52 27 -166 89 -254 138 -154 87 -217 111 -230 90 -10 -17 79
-78 204 -140 19 -9 37 -20 38 -24 2 -5 10 -8 17 -8 8 0 20 -6 27 -13 7 -7 24
-18 38 -24 14 -7 52 -29 85 -48 81 -47 266 -141 340 -171 33 -14 74 -31 90
-38 37 -17 178 -68 265 -96 36 -12 74 -25 85 -30 11 -4 56 -20 100 -35 44 -15
89 -30 100 -35 33 -14 118 -38 158 -45 20 -4 40 -12 44 -18 7 -12 -189 -3
-307 14 -61 9 -256 49 -535 109 -184 40 -387 93 -460 120 -60 22 -156 52 -230
72 -67 17 -169 51 -181 60 -6 4 -28 14 -50 22 -21 7 -65 25 -96 40 -31 14 -61
26 -65 26 -27 0 -354 157 -361 173 -2 4 -8 7 -13 7 -16 0 -214 98 -285 141
-38 23 -110 69 -160 103 -50 34 -131 84 -179 111 -48 28 -99 58 -114 67 -14
10 -33 21 -41 25 -45 20 -443 316 -505 376 -16 15 -55 47 -85 69 -62 47 -213
196 -256 254 -16 22 -31 41 -35 44 -3 3 -25 32 -50 65 -24 33 -72 95 -107 138
-35 44 -80 104 -100 135 -20 32 -39 59 -42 62 -3 3 -40 57 -83 120 -42 63 -97
136 -121 163 -24 26 -47 53 -50 60 -3 6 -16 28 -28 48 -92 145 -189 326 -227
419 -8 19 -22 53 -31 75 -25 59 -29 71 -45 149 -30 139 -45 221 -45 247 0 53
105 144 285 245 39 21 84 47 100 56 45 25 55 22 108 -34z m6270 -115 c74 -76
159 -168 189 -204 80 -94 218 -277 229 -302 5 -12 32 -53 60 -92 28 -38 71
-101 97 -140 25 -38 57 -86 72 -105 15 -19 40 -60 56 -90 24 -47 73 -129 122
-205 7 -11 26 -49 43 -84 17 -36 54 -102 81 -148 27 -46 62 -111 77 -146 47
-104 144 -302 151 -307 19 -14 128 -287 152 -380 25 -97 48 -203 45 -206 -6
-7 -132 87 -186 137 -31 30 -97 90 -146 134 -49 44 -131 122 -181 174 l-93 94
-6 66 c-13 143 -28 220 -61 326 -57 181 -77 239 -84 250 -4 6 -13 32 -19 60
-7 27 -34 99 -61 160 -76 174 -295 605 -335 660 -19 28 -65 94 -101 148 -36
54 -82 121 -102 147 -20 27 -49 66 -64 87 -15 21 -39 53 -54 71 -56 68 -9 27
119 -105z m134 -30 c-4 -3 -1 -13 6 -21 11 -13 9 -14 -10 -1 -27 16 -30 29 -6
29 9 0 13 -3 10 -7z m110 -135 c-3 -8 -6 -5 -6 6 -1 11 2 17 5 13 3 -3 4 -12
1 -19z m-7261 -29 c135 -13 181 -24 193 -48 6 -10 17 -47 25 -82 24 -108 47
-192 62 -226 8 -17 14 -36 14 -41 0 -6 9 -32 20 -58 11 -26 19 -49 16 -51 -2
-2 -46 -8 -97 -13 -145 -14 -240 -48 -336 -122 -49 -37 -164 -160 -223 -236
-14 -18 -35 -44 -47 -58 -24 -26 -83 -110 -83 -117 0 -3 -18 -35 -40 -72 -23
-36 -45 -78 -51 -93 -5 -15 -13 -36 -18 -47 -5 -11 -21 -54 -36 -95 -14 -41
-31 -84 -36 -95 -10 -24 -53 -202 -79 -330 -10 -49 -29 -142 -43 -205 -14 -63
-28 -153 -31 -200 -8 -106 -27 -210 -38 -210 -4 0 -8 9 -8 19 0 11 -5 23 -11
27 -20 12 -38 -21 -49 -91 -19 -132 -30 -220 -35 -290 -3 -38 -10 -106 -15
-150 -15 -124 -12 -588 6 -780 8 -93 19 -213 23 -265 12 -137 21 -170 45 -170
13 0 18 -19 51 -230 29 -178 46 -262 55 -275 4 -5 11 -31 14 -57 4 -27 11 -48
15 -48 5 0 11 -21 15 -47 6 -48 73 -270 86 -288 4 -5 11 -26 14 -45 4 -19 16
-58 27 -87 19 -46 20 -60 10 -135 -8 -71 -7 -99 10 -183 10 -55 19 -106 19
-113 0 -15 -96 90 -187 203 -35 44 -69 87 -76 95 -25 32 -67 100 -67 110 0 5
-3 10 -7 10 -9 0 -29 34 -77 125 -17 33 -39 71 -49 85 -34 48 -124 195 -138
228 -8 17 -17 32 -21 32 -5 0 -8 7 -8 15 0 8 -4 15 -10 15 -5 0 -10 5 -10 11
0 6 -11 25 -24 42 -27 36 -160 307 -200 406 -14 36 -26 76 -26 89 0 14 -3 22
-7 19 -3 -4 -12 7 -19 25 -6 18 -23 63 -36 99 -14 37 -28 83 -32 104 -4 20
-14 53 -23 74 -27 62 -31 74 -52 151 -50 184 -87 430 -97 645 -9 213 -10 842
-1 955 4 52 14 126 22 164 8 38 15 81 15 97 0 29 49 255 74 344 8 28 20 68 26
90 15 53 72 191 121 290 45 92 87 162 144 234 22 27 56 73 75 102 116 170 424
473 555 545 210 116 398 191 510 204 33 4 63 8 66 9 3 0 55 -4 115 -10z m7454
-199 c0 -5 -2 -10 -4 -10 -3 0 -8 5 -11 10 -3 6 -1 10 4 10 6 0 11 -4 11 -10z
m46 -17 c-10 -10 -19 5 -10 18 6 11 8 11 12 0 2 -7 1 -15 -2 -18z m34 -78 c7
-9 8 -15 2 -15 -5 0 -12 7 -16 15 -3 8 -4 15 -2 15 2 0 9 -7 16 -15z m80 -15
c0 -5 -2 -10 -4 -10 -3 0 -8 5 -11 10 -3 6 -1 10 4 10 6 0 11 -4 11 -10z m-40
-30 c0 -5 -4 -10 -10 -10 -5 0 -10 5 -10 10 0 6 5 10 10 10 6 0 10 -4 10 -10z
m65 -30 c3 -5 1 -10 -4 -10 -6 0 -11 5 -11 10 0 6 2 10 4 10 3 0 8 -4 11 -10z
m105 -15 c0 -14 -4 -25 -8 -25 -5 0 -14 11 -20 25 -10 22 -9 25 8 25 15 0 20
-7 20 -25z m-106 -47 c-4 -6 -14 2 -23 16 -10 14 -21 23 -26 19 -4 -5 -5 -2
-1 5 6 11 13 9 32 -9 13 -12 21 -26 18 -31z m116 -75 c-1 -17 -2 -17 -15 1
-21 27 -21 53 0 32 8 -8 15 -23 15 -33z m-36 -39 c4 -10 1 -14 -6 -12 -15 5
-23 28 -10 28 5 0 13 -7 16 -16z m-7174 -601 c0 -5 -30 -33 -67 -63 -90 -74
-161 -146 -180 -184 -9 -17 -24 -40 -34 -51 -60 -65 -221 -274 -263 -341 -85
-136 -261 -495 -257 -523 2 -8 -2 -17 -7 -20 -9 -6 -34 -80 -97 -286 -20 -66
-42 -131 -49 -145 -8 -14 -27 -50 -44 -80 -16 -30 -42 -84 -57 -120 -15 -36
-39 -92 -55 -125 -49 -105 -60 -133 -60 -148 0 -9 -4 -18 -9 -22 -5 -3 -15
-22 -22 -43 -6 -20 -20 -56 -31 -78 -10 -23 -18 -45 -16 -50 1 -5 -8 -31 -20
-58 -13 -28 -26 -61 -29 -75 l-7 -26 -7 25 c-6 23 -7 23 -8 3 -1 -31 -18 -37
-25 -10 -17 63 3 677 28 862 8 61 18 156 21 213 7 99 8 102 31 102 33 0 61 31
74 82 6 24 18 57 26 75 8 17 14 37 14 45 0 8 4 18 9 24 5 5 14 26 21 47 11 35
93 180 143 254 12 17 40 60 62 95 33 54 117 165 198 266 46 57 177 178 214
198 21 11 68 37 104 56 83 45 206 86 289 97 89 12 110 12 110 4z m217 -85 c14
-16 23 -42 28 -83 3 -33 10 -76 15 -95 4 -19 14 -78 20 -130 7 -52 16 -99 21
-104 5 -6 9 -18 9 -27 0 -9 7 -39 15 -65 8 -27 31 -107 50 -179 20 -71 45
-161 56 -200 23 -83 78 -226 129 -340 5 -11 21 -49 35 -85 15 -36 39 -92 55
-125 15 -33 31 -70 35 -82 3 -13 11 -23 16 -23 5 0 9 -5 9 -11 0 -6 28 -61 62
-122 34 -62 72 -133 84 -158 13 -26 43 -78 69 -117 25 -39 45 -75 45 -81 0 -6
5 -11 10 -11 6 0 10 -5 10 -10 0 -10 67 -110 80 -120 4 -3 32 -44 64 -92 58
-90 90 -118 108 -100 16 16 2 44 -78 157 -40 59 -74 108 -74 110 0 2 -31 52
-70 112 -38 59 -77 122 -85 138 -8 17 -33 62 -56 100 -22 39 -58 108 -80 155
-22 47 -44 92 -49 100 -12 21 -41 80 -88 180 -63 137 -72 157 -72 172 0 8 -4
18 -9 23 -7 8 -104 298 -140 420 -29 98 -57 236 -86 431 -7 47 6 65 27 36 16
-23 277 -299 369 -391 80 -79 192 -183 250 -231 24 -19 61 -51 82 -70 22 -19
54 -44 72 -55 70 -43 120 -78 130 -89 6 -7 26 -23 45 -37 20 -13 84 -62 144
-109 59 -47 130 -99 157 -115 68 -42 88 -67 133 -165 49 -109 53 -120 61 -147
4 -13 11 -23 16 -23 5 0 9 -6 9 -14 0 -8 21 -57 48 -108 40 -79 83 -169 184
-382 10 -22 18 -46 18 -53 0 -7 3 -13 8 -13 4 0 19 -21 32 -47 14 -27 30 -55
36 -63 12 -16 58 -97 82 -145 9 -16 18 -32 22 -35 4 -3 19 -27 35 -55 15 -27
37 -63 48 -79 19 -26 30 -48 89 -172 18 -36 170 -256 201 -290 7 -7 32 -36 57
-65 60 -72 157 -174 323 -343 75 -78 133 -142 127 -144 -6 -2 -32 7 -58 21
-100 53 -117 62 -122 68 -3 3 -36 26 -75 50 -76 47 -238 161 -270 190 -11 10
-39 33 -62 51 -189 148 -272 231 -340 336 -52 80 -93 116 -113 96 -6 -6 -4
-19 5 -34 8 -14 20 -36 27 -50 18 -35 51 -84 62 -91 5 -4 6 -11 2 -17 -3 -5 0
-12 7 -15 7 -2 37 -45 66 -93 61 -101 179 -264 191 -264 4 0 13 -13 20 -30 7
-16 16 -30 21 -30 4 0 27 -21 51 -47 24 -26 128 -131 232 -235 137 -136 184
-188 169 -188 -19 0 -113 46 -273 134 -36 20 -108 57 -160 83 -52 26 -96 50
-98 55 -2 4 -8 8 -13 8 -6 0 -37 18 -69 40 -32 22 -63 40 -69 40 -5 0 -11 3
-13 8 -1 4 -37 30 -78 56 -182 119 -333 246 -616 521 -122 117 -164 163 -287
314 -36 44 -91 111 -112 134 -60 70 -140 180 -207 284 -44 71 -86 135 -93 143
-7 8 -25 40 -41 70 -16 30 -32 57 -35 60 -3 3 -19 30 -35 60 -16 30 -31 57
-34 60 -3 3 -32 59 -65 125 -32 66 -61 122 -64 125 -12 10 -91 181 -91 195 0
8 -4 15 -10 15 -5 0 -10 8 -10 19 0 16 -17 58 -61 156 -24 53 -81 217 -133
380 -66 208 -81 245 -98 245 -35 -1 -37 -15 -12 -109 29 -112 124 -395 138
-408 3 -3 6 -14 6 -23 0 -10 12 -44 26 -76 14 -33 34 -77 44 -99 9 -22 21 -51
25 -65 4 -14 16 -41 26 -60 10 -19 28 -57 39 -85 40 -93 248 -503 282 -557 19
-29 47 -73 64 -98 38 -59 52 -82 60 -100 11 -22 102 -148 146 -201 21 -26 38
-52 38 -58 0 -6 5 -11 11 -11 5 0 8 -4 5 -9 -3 -5 4 -19 17 -33 12 -13 45 -55
74 -94 59 -79 67 -87 114 -130 19 -17 45 -44 58 -60 70 -84 152 -173 201 -218
127 -118 136 -131 143 -216 1 -14 10 -40 20 -59 9 -19 17 -41 17 -49 0 -8 8
-31 19 -51 10 -20 37 -74 61 -121 23 -47 48 -92 56 -101 8 -8 14 -21 14 -27 0
-7 4 -12 9 -12 5 0 12 -11 15 -24 3 -14 12 -31 20 -38 7 -8 21 -27 30 -43 52
-91 148 -205 298 -350 147 -142 281 -248 349 -275 89 -36 44 -35 -126 1 -49
11 -97 24 -106 29 -9 5 -34 12 -55 16 -22 4 -66 19 -99 34 -33 15 -73 30 -88
34 -16 4 -45 17 -65 30 -20 12 -50 27 -67 33 -42 14 -242 139 -279 174 -17 16
-34 29 -38 29 -4 0 -17 10 -30 23 -13 12 -50 42 -83 67 -89 67 -236 220 -286
297 -24 37 -51 75 -59 84 -8 8 -28 32 -45 53 -16 21 -38 47 -47 58 -10 12 -18
24 -18 28 0 4 -12 20 -26 36 -14 16 -51 67 -81 114 -80 122 -126 192 -138 205
-18 20 -242 457 -274 536 -14 34 -54 127 -71 164 -8 18 -55 134 -110 275 -10
25 -26 77 -35 115 -10 39 -21 75 -25 80 -4 6 -11 28 -15 50 -4 22 -10 45 -14
50 -4 6 -22 66 -40 135 -18 69 -41 156 -52 193 -11 37 -24 107 -30 155 -5 48
-14 123 -19 167 -10 90 -25 270 -45 545 -16 226 -12 517 10 655 1 6 3 16 3 23
3 19 26 14 49 -10z m-148 -132 l1 -95 -197 -199 c-186 -188 -303 -320 -303
-342 0 -6 -3 -10 -7 -10 -5 0 -19 -17 -33 -37 -14 -20 -30 -41 -35 -47 -34
-36 -140 -181 -200 -273 -62 -94 -70 -104 -73 -79 -2 15 1 33 6 39 5 7 15 30
22 52 27 85 193 426 220 450 14 13 16 11 15 -13 0 -22 4 -26 20 -24 19 3 55
40 52 52 -1 5 32 60 43 70 3 3 25 37 50 75 64 100 125 177 221 280 92 97 188
195 193 195 2 0 4 -43 5 -94z m1 -293 c0 -27 4 -104 10 -173 5 -69 14 -210 20
-315 13 -224 30 -352 71 -535 16 -74 41 -187 55 -250 30 -134 68 -259 117
-385 20 -49 58 -148 85 -220 98 -255 227 -537 337 -735 24 -44 46 -89 50 -100
3 -11 31 -63 61 -116 30 -54 51 -100 47 -105 -4 -4 -60 6 -123 22 -193 49
-279 64 -293 50 -21 -21 14 -39 128 -65 61 -15 126 -31 145 -36 19 -6 76 -21
125 -34 86 -22 92 -25 128 -72 34 -45 55 -90 46 -98 -2 -2 -40 2 -84 9 -94 15
-148 10 -615 -61 -53 -8 -108 -14 -123 -14 -14 0 -59 -11 -99 -24 -40 -14
-102 -30 -138 -37 -48 -9 -86 -26 -148 -66 -86 -55 -93 -56 -125 -16 -22 28
-47 30 -47 5 0 -17 110 -135 144 -154 29 -16 17 -34 -46 -71 -73 -43 -140 -50
-178 -19 l-23 18 47 38 c25 21 46 47 46 57 0 26 -6 24 -66 -21 -57 -43 -69
-46 -109 -28 -33 15 -43 4 -23 -30 16 -26 15 -29 -23 -94 -22 -38 -46 -68 -53
-68 -7 0 -30 13 -52 30 -78 59 -104 25 -26 -36 26 -21 63 -52 82 -70 19 -18
51 -36 70 -41 32 -8 35 -12 38 -51 5 -61 -9 -79 -71 -91 -55 -12 -148 -1 -173
20 -15 13 -44 5 -44 -11 0 -17 99 -57 160 -64 84 -11 113 -23 151 -63 19 -19
60 -52 91 -72 37 -24 76 -62 109 -106 105 -142 252 -275 303 -275 39 0 32 16
-21 52 -27 18 -88 73 -138 123 -155 155 -204 285 -153 405 61 141 80 164 198
242 167 108 226 132 191 76 -37 -59 -17 -328 35 -461 39 -99 141 -227 241
-301 45 -34 82 -64 82 -68 1 -4 -25 -8 -56 -10 -37 -2 -58 -8 -61 -17 -4 -12
16 -13 119 -8 156 8 195 19 366 103 156 78 250 137 257 162 8 31 20 176 17
222 -6 113 -60 310 -103 372 l-19 28 73 -35 c96 -47 160 -48 235 -5 62 36 61
52 -5 76 -93 33 -208 92 -272 139 -67 50 -68 64 -3 46 58 -16 74 18 18 39 -43
16 -259 49 -367 55 -117 7 -133 15 -144 72 l-6 30 69 6 c37 4 110 7 162 7 l93
0 157 -81 c86 -45 191 -107 234 -138 166 -119 176 -125 191 -112 11 10 25 3
68 -35 236 -206 313 -255 668 -422 46 -22 97 -60 171 -129 58 -54 134 -115
170 -136 100 -58 299 -117 299 -88 0 5 -28 30 -62 54 -67 48 -205 183 -197
191 3 3 32 1 64 -4 100 -16 291 -24 299 -12 6 11 -29 25 -94 37 -86 17 -328
165 -438 269 -73 68 -234 347 -303 525 -16 42 -33 83 -38 91 -5 9 -12 31 -16
50 -4 19 -10 40 -14 45 -11 18 -30 79 -26 83 6 6 214 -142 215 -153 0 -5 22
-20 48 -32 26 -13 99 -57 162 -98 116 -77 345 -197 475 -249 251 -101 468
-183 506 -191 50 -11 36 23 -18 46 -27 11 -66 28 -88 37 -70 30 -273 203 -477
406 -182 181 -358 380 -346 392 7 7 38 -7 38 -17 0 -5 22 -24 48 -42 114 -75
141 -94 217 -148 92 -65 266 -167 358 -208 87 -40 216 -83 227 -76 20 12 9 25
-84 100 -52 41 -115 98 -140 126 l-46 51 1 127 c0 69 6 162 13 205 l13 80 77
73 c42 40 83 73 91 73 20 0 23 -29 7 -90 -9 -37 -13 -88 -10 -155 4 -92 8
-106 41 -170 81 -153 203 -272 328 -320 40 -16 76 -30 79 -32 14 -11 -34 -21
-128 -28 -109 -7 -148 -18 -136 -37 18 -29 370 23 549 81 50 17 124 40 165 51
99 29 290 148 290 181 0 6 -15 7 -37 3 -34 -6 -36 -6 -29 17 3 13 11 53 18 89
11 61 9 76 -21 205 -17 77 -44 167 -60 200 -23 50 -106 166 -132 185 -33 24
-99 93 -95 98 11 10 128 3 213 -14 68 -14 87 -22 110 -48 84 -92 103 -172 103
-424 0 -94 4 -173 9 -176 18 -12 29 81 41 349 6 135 15 234 26 278 20 78 16
85 -63 135 -23 15 -45 33 -48 40 -7 18 17 61 78 144 l52 69 123 -3 c105 -3
126 -6 137 -21 7 -10 20 -59 30 -110 73 -394 96 -571 115 -882 5 -77 13 -171
19 -210 6 -38 20 -268 31 -510 19 -400 21 -542 18 -1570 -2 -894 0 -1156 11
-1257 7 -69 11 -138 7 -152 -4 -15 -41 -63 -83 -109 -41 -45 -100 -115 -130
-155 -85 -115 -376 -394 -573 -551 -52 -41 -108 -88 -125 -104 -59 -56 -151
-111 -305 -183 -225 -105 -286 -119 -530 -118 l-195 0 -190 48 c-104 26 -248
67 -320 91 -71 24 -161 53 -200 64 -246 68 -508 160 -665 233 -36 17 -120 52
-186 78 -155 62 -315 135 -379 174 -177 107 -444 325 -645 526 -173 173 -467
536 -558 690 -24 41 -60 99 -79 129 -20 29 -74 130 -122 225 -185 367 -274
571 -372 858 -53 156 -136 343 -207 465 -89 156 -181 331 -198 378 -9 28 -21
55 -26 62 -5 6 -29 69 -54 140 -25 70 -53 148 -61 172 -12 32 -13 46 -5 49 6
2 35 36 63 75 76 104 148 171 294 271 120 81 327 196 355 196 11 0 143 63 165
79 39 28 465 168 568 186 20 4 37 13 37 20 0 12 -59 70 -208 203 -61 55 -88
72 -110 72 -60 0 -267 -78 -432 -164 -117 -60 -312 -186 -342 -221 -12 -14
-45 -40 -73 -57 -89 -55 -124 -88 -178 -171 -68 -106 -90 -153 -121 -257 -13
-47 -29 -98 -36 -115 -10 -28 -12 -28 -22 -11 -21 37 -39 272 -40 506 0 350
17 626 52 842 97 590 186 854 392 1163 76 113 223 312 248 335 3 3 27 32 52
65 26 33 57 72 70 86 13 15 34 40 47 57 13 18 28 29 32 26 5 -3 9 2 9 10 0 9
3 16 8 16 4 0 20 18 36 40 16 21 34 36 39 33 6 -3 7 -2 4 4 -6 10 88 103 104
103 5 0 9 5 9 11 0 22 84 99 107 99 21 0 23 -5 23 -47z m-1329 -624 c-6 -24
-9 -28 -10 -12 -1 24 9 56 16 50 2 -3 0 -20 -6 -38z m3155 -429 c14 -14 431
-220 446 -220 24 0 158 -81 158 -95 0 -19 -27 -32 -200 -98 -80 -31 -162 -63
-182 -71 -21 -9 -42 -16 -48 -16 -14 0 -57 95 -103 225 -19 55 -49 134 -66
175 -31 75 -38 110 -23 110 4 0 12 -4 18 -10z m5214 -499 c47 -48 105 -115
130 -147 25 -32 77 -94 117 -137 69 -75 178 -210 217 -272 11 -16 46 -63 78
-104 33 -40 72 -99 88 -130 17 -31 41 -74 55 -96 14 -22 29 -50 34 -62 5 -11
15 -24 20 -28 6 -3 11 -23 11 -44 0 -22 6 -44 15 -51 8 -7 15 -19 15 -27 0 -8
14 -48 30 -90 17 -41 30 -80 30 -86 0 -18 -57 50 -107 127 -25 38 -50 75 -57
81 -6 7 -27 32 -46 56 -19 24 -64 76 -100 114 -72 77 -112 123 -150 175 -36
49 -94 106 -184 180 -43 36 -86 72 -95 80 -9 8 -39 33 -66 55 -139 111 -229
193 -245 225 -10 19 -24 70 -31 112 -12 74 -12 79 7 96 22 20 109 59 139 61 5
1 48 -39 95 -88z m-4049 -17 c41 -15 94 -32 119 -39 25 -8 111 -34 193 -59
221 -69 358 -102 579 -140 60 -10 99 -28 87 -40 -2 -2 -31 -14 -64 -26 -177
-65 -252 -90 -273 -90 -13 0 -36 -9 -51 -19 -29 -21 -202 -91 -225 -91 -7 0
-19 7 -26 15 -7 8 -21 15 -32 15 -16 0 -19 -5 -13 -28 7 -32 11 -29 -124 -86
-96 -40 -103 -38 -120 29 -7 28 -17 45 -26 45 -20 0 -28 -40 -16 -74 20 -52
15 -59 -81 -106 -51 -25 -95 -46 -99 -48 -3 -1 -14 15 -24 37 -19 44 -38 57
-54 37 -8 -10 -7 -23 4 -49 8 -20 15 -43 15 -50 0 -14 -98 -87 -117 -87 -5 0
-18 9 -28 20 -34 38 -60 16 -35 -30 13 -24 3 -50 -19 -50 -25 0 -84 66 -122
135 -18 33 -47 78 -65 100 -45 57 -116 175 -175 289 -40 78 -48 101 -37 108 7
5 90 47 183 93 183 91 491 213 541 214 17 1 64 -11 105 -25z m3772 -109 c26
-83 55 -249 83 -470 13 -110 14 -154 4 -285 -6 -85 -15 -171 -20 -190 -5 -19
-11 -60 -15 -90 -10 -83 -34 -188 -57 -255 -25 -72 -191 -399 -248 -489 -89
-140 -243 -234 -340 -206 -14 4 -31 5 -37 3 -16 -6 -29 -57 -43 -168 -32 -251
-110 -713 -147 -870 -26 -107 -50 -167 -39 -95 3 19 8 76 11 125 6 95 10 146
50 560 49 506 63 612 88 660 6 11 33 44 61 73 28 29 81 99 118 155 37 56 90
134 117 172 53 75 94 152 136 255 14 36 32 79 39 95 97 220 144 536 134 891
-3 98 -2 189 3 202 5 12 19 26 31 31 30 11 39 -2 71 -104z m-187 17 c6 -4 15
-23 19 -42 29 -133 -33 -642 -99 -810 -8 -19 -31 -81 -51 -137 -21 -57 -41
-103 -46 -103 -5 0 -9 -8 -9 -19 0 -10 -6 -24 -13 -30 -8 -6 -24 -35 -37 -65
-13 -31 -27 -53 -33 -49 -6 4 -7 1 -2 -6 6 -11 -6 -44 -36 -101 -4 -8 -17 -33
-29 -56 -11 -22 -37 -64 -58 -92 -20 -28 -50 -69 -65 -92 -29 -41 -51 -54 -40
-22 4 9 31 64 60 122 58 112 65 129 118 285 85 253 105 371 105 618 l0 207
-25 0 c-30 0 -39 -19 -48 -101 -14 -115 -110 -367 -181 -472 -14 -21 -26 -40
-26 -43 0 -5 -37 -60 -55 -80 -24 -28 -42 -51 -65 -84 -111 -160 -296 -366
-425 -473 -27 -23 -60 -52 -74 -65 -13 -12 -26 -20 -28 -18 -4 4 112 253 148
318 5 10 9 25 9 34 0 9 7 32 16 52 29 67 32 76 63 182 17 58 35 119 40 135 41
133 61 275 78 558 l6 108 71 -8 c87 -10 527 -9 579 1 20 4 37 11 37 17 0 19
-52 28 -207 35 -170 7 -199 14 -378 88 -184 76 -178 100 23 91 125 -5 252 6
277 25 6 4 30 11 55 15 71 11 232 52 270 69 41 18 42 18 56 8z m-7795 -147
c-11 -50 -28 -164 -38 -260 -3 -30 -8 -43 -12 -33 -3 10 -6 -26 -6 -80 0 -53
-4 -146 -9 -207 -4 -60 -9 -191 -10 -290 0 -103 -5 -182 -11 -185 -5 -3 -17
45 -27 110 -10 63 -27 170 -38 237 -21 130 -27 309 -10 298 6 -3 10 4 10 17 1
25 22 107 31 123 4 6 10 26 14 45 3 19 12 53 20 75 7 22 20 65 30 95 10 30 27
78 39 105 18 43 21 47 25 25 1 -14 -2 -48 -8 -75z m6144 57 c17 -10 59 -28 95
-41 117 -41 123 -43 108 -53 -9 -7 -7 -8 8 -5 20 4 82 -13 144 -41 14 -6 42
-14 63 -17 21 -3 40 -11 42 -18 3 -7 14 -79 25 -162 11 -82 27 -186 35 -230
15 -76 47 -381 61 -582 7 -90 6 -93 -30 -180 -68 -161 -224 -437 -314 -556
-29 -37 -52 -77 -52 -88 0 -34 36 -21 76 29 62 75 91 100 152 131 181 91 441
349 646 637 21 30 40 53 42 52 1 -2 -1 -48 -6 -103 -5 -55 -11 -129 -14 -165
-3 -36 -12 -90 -20 -120 -14 -54 -67 -162 -93 -188 -7 -7 -13 -16 -13 -20 0
-4 -13 -21 -29 -37 -50 -54 -62 -95 -28 -95 7 0 38 25 70 55 33 30 64 55 69
55 12 0 8 -64 -17 -265 -9 -71 -22 -197 -30 -280 -8 -82 -19 -195 -25 -250
-22 -211 -30 -305 -40 -465 -5 -91 -15 -228 -20 -305 -42 -582 -48 -1014 -20
-1615 16 -353 60 -715 119 -970 12 -53 7 -62 -17 -30 -67 92 -145 206 -168
247 -15 26 -54 92 -86 146 -32 53 -63 107 -68 120 -6 12 -14 29 -20 37 -16 26
-80 199 -80 218 0 10 -4 22 -9 27 -5 6 -21 73 -35 150 -15 77 -30 163 -35 190
-17 90 -50 357 -62 495 -6 74 -15 145 -20 158 -8 20 -11 21 -30 10 -20 -12
-21 -19 -16 -119 3 -58 10 -132 16 -165 6 -32 16 -97 21 -144 6 -47 15 -121
20 -165 6 -44 14 -100 20 -125 5 -25 14 -79 20 -120 6 -41 15 -88 20 -105 5
-16 19 -64 31 -105 12 -41 28 -88 36 -103 10 -21 15 -83 18 -230 3 -111 9
-236 15 -277 5 -41 10 -113 10 -160 1 -47 6 -107 11 -135 5 -27 18 -111 28
-185 19 -131 39 -220 83 -364 17 -57 18 -70 7 -82 -8 -7 -19 -10 -24 -6 -51
36 -216 345 -250 467 -9 33 -28 92 -41 130 -13 39 -30 95 -38 125 -8 30 -24
87 -35 125 -43 155 -83 435 -121 865 -7 79 -31 612 -32 730 0 8 5 213 12 455
11 352 11 527 1 875 -7 239 -16 586 -21 770 -5 184 -13 385 -19 445 -6 61 -13
193 -17 295 -3 102 -8 188 -10 192 -2 3 -11 88 -19 188 -8 100 -17 185 -20
190 -5 9 -25 184 -46 400 -5 58 -25 182 -44 275 -46 224 -46 221 10 187z
m1996 -163 c277 -247 583 -560 685 -700 36 -50 68 -91 117 -153 79 -99 98
-151 104 -280 9 -187 -32 -494 -82 -611 -7 -16 -20 -52 -30 -80 -9 -27 -20
-57 -23 -65 -3 -8 -6 -17 -7 -20 -1 -3 -7 -18 -13 -33 -7 -15 -15 -39 -18 -52
-3 -14 -10 -25 -15 -25 -5 0 -9 -6 -9 -13 0 -21 -85 -131 -88 -114 -2 8 4 52
12 97 22 114 22 483 0 628 -16 110 -28 146 -46 140 -6 -2 -29 -60 -53 -128
-51 -152 -129 -356 -181 -475 -35 -81 -138 -338 -161 -400 -14 -38 -28 -74
-32 -80 -4 -5 -20 -44 -36 -85 -16 -41 -33 -80 -38 -87 -5 -7 -15 -34 -22 -60
-7 -26 -23 -73 -35 -103 -12 -30 -24 -64 -27 -75 -2 -11 -9 -29 -13 -40 -5
-11 -25 -72 -45 -135 -30 -92 -37 -132 -39 -200 -1 -69 2 -85 14 -85 8 0 19
15 24 35 5 19 12 37 16 40 3 3 11 41 17 85 14 99 94 340 140 424 l15 26 -6
-35 c-43 -268 -59 -498 -59 -865 -1 -261 2 -334 15 -395 9 -41 20 -95 23 -120
25 -163 138 -408 237 -509 32 -33 58 -62 58 -65 0 -2 -10 -2 -22 1 -99 25
-334 260 -473 473 -66 102 -67 104 -55 154 23 105 41 260 47 416 6 175 2 220
-22 220 -26 0 -33 -33 -39 -185 -7 -142 -26 -330 -47 -440 -5 -27 -14 -81 -19
-120 -6 -38 -14 -79 -19 -90 -5 -11 -19 -58 -32 -105 -12 -47 -29 -96 -36
-110 -7 -14 -13 -33 -13 -43 0 -10 -6 -30 -14 -45 -7 -15 -17 -42 -21 -61 -4
-19 -20 -63 -36 -97 -16 -34 -29 -65 -29 -69 0 -4 -6 -21 -14 -38 -8 -18 -24
-54 -36 -82 -38 -86 -65 -140 -77 -153 -7 -7 -13 -18 -13 -24 0 -6 -16 -35
-35 -64 -19 -29 -35 -56 -35 -61 0 -12 -89 -110 -90 -98 0 6 8 39 19 75 40
133 51 178 57 223 4 26 11 47 15 47 5 0 9 13 9 28 0 16 9 64 19 108 34 141 40
204 58 529 14 268 15 373 6 649 -9 295 -12 330 -27 342 -10 7 -25 10 -33 7
-12 -5 -13 -27 -7 -151 9 -190 10 -659 1 -787 -10 -136 -33 -365 -46 -450 -6
-38 -16 -104 -22 -145 -12 -87 -30 -171 -40 -185 -4 -5 -10 -24 -13 -42 -4
-17 -14 -37 -22 -43 -18 -16 -60 -5 -70 17 -20 45 -1 2288 20 2322 4 6 14 142
22 303 20 381 31 556 38 567 3 4 43 11 88 13 68 4 93 10 135 34 58 32 137 119
185 204 18 30 34 57 38 60 9 8 120 237 120 249 0 6 4 19 9 29 26 50 83 238
111 367 6 28 16 73 22 100 6 28 13 179 16 337 3 237 1 301 -12 366 -9 43 -16
82 -16 85 0 14 18 6 51 -24z m-2791 5 c0 -7 -18 -40 -40 -73 -33 -49 -46 -61
-73 -65 -82 -12 -114 -15 -119 -11 -7 8 18 125 28 135 8 8 126 25 182 27 12 0
22 -5 22 -13z m351 -1 c13 -13 -60 -126 -93 -144 -34 -18 -258 10 -258 32 0
13 28 67 53 103 l20 29 134 -5 c76 -3 138 -9 144 -15z m-621 -101 l0 -58 -82
-12 c-46 -6 -92 -13 -103 -14 -17 -3 -20 3 -20 37 l0 39 80 32 c44 18 90 33
103 33 20 1 22 -3 22 -57z m1805 23 c16 -3 33 -9 38 -14 13 -13 1 -346 -16
-461 -8 -52 -25 -129 -37 -170 -12 -41 -26 -93 -32 -115 -6 -22 -19 -49 -29
-59 -17 -18 -18 -18 -23 15 -11 76 -37 331 -46 444 -5 66 -16 178 -26 249 -13
98 -14 130 -5 135 7 4 42 1 79 -6 37 -8 80 -16 97 -18z m-2085 -90 c0 -37 -20
-73 -44 -79 -59 -16 -156 0 -156 26 0 14 24 27 110 57 76 27 90 26 90 -4z
m-232 -95 c12 -12 22 -24 22 -28 0 -17 -145 -86 -175 -84 -39 3 -97 30 -90 43
7 11 71 45 130 71 54 23 87 22 113 -2z m-263 -135 c34 -28 30 -43 -19 -79 -36
-27 -146 -30 -172 -5 -18 19 -17 21 61 74 60 40 90 43 130 10z m3217 -118 c-6
-23 -14 -75 -18 -115 -6 -69 -8 -72 -24 -55 -37 41 -39 54 -15 107 13 28 31
69 40 91 21 48 31 31 17 -28z m-3443 -31 c29 -31 24 -55 -14 -77 -43 -25 -78
-23 -104 5 -19 20 -21 28 -12 45 29 53 93 66 130 27z m-131 -172 c2 -13 -6
-25 -22 -33 -27 -15 -46 -8 -46 18 0 41 62 56 68 15z m3486 -26 c23 -53 17
-123 -18 -223 -30 -88 -85 -217 -97 -230 -6 -6 -7 55 -3 165 5 141 10 183 25
215 28 58 62 115 68 115 4 0 15 -19 25 -42z m-8255 -143 c23 -44 41 -85 41
-92 0 -6 3 -13 8 -15 4 -1 24 -39 45 -83 22 -44 50 -94 63 -112 13 -17 24 -34
24 -37 0 -3 18 -31 40 -62 22 -32 40 -62 40 -67 0 -5 16 -31 35 -58 20 -28 32
-55 29 -64 -5 -11 -2 -14 11 -9 14 6 16 3 10 -16 -6 -18 -4 -22 8 -17 10 4 17
-2 21 -19 4 -14 11 -22 16 -19 5 3 11 -4 15 -15 3 -11 11 -20 17 -20 5 0 7 -8
4 -17 -4 -10 -4 -14 0 -11 10 11 36 -20 28 -33 -4 -8 -3 -9 4 -5 6 4 17 -4 24
-17 27 -49 225 -297 281 -353 92 -90 134 -155 161 -249 15 -50 33 -108 42
-130 8 -22 17 -48 21 -57 3 -10 9 -18 14 -18 5 0 9 -7 9 -15 0 -8 4 -15 8 -15
4 0 17 -24 27 -52 10 -29 27 -61 36 -72 10 -10 21 -32 24 -48 4 -16 17 -40 29
-53 12 -13 28 -36 36 -52 8 -15 20 -34 27 -40 6 -7 21 -29 34 -50 13 -21 27
-42 31 -48 13 -16 60 -81 94 -127 89 -126 132 -183 157 -209 15 -16 27 -34 27
-39 0 -5 6 -15 14 -22 7 -8 34 -56 60 -107 25 -51 50 -99 57 -107 6 -7 8 -22
4 -34 -5 -14 -2 -20 9 -20 10 0 28 -26 47 -67 17 -38 42 -83 56 -101 22 -29
24 -37 14 -58 -14 -31 -14 -44 -1 -44 6 0 10 10 10 21 0 18 2 19 15 9 8 -7 15
-19 15 -27 0 -15 48 -112 61 -123 11 -9 19 -41 9 -35 -15 9 -12 -4 4 -21 11
-11 16 -11 19 -1 3 7 6 5 6 -6 1 -9 15 -36 31 -59 17 -22 30 -47 30 -55 0 -8
4 -11 10 -8 5 3 7 0 5 -8 -3 -7 1 -27 10 -43 8 -16 15 -23 15 -16 0 22 19 13
35 -18 9 -17 13 -36 9 -42 -5 -8 -2 -9 9 -5 12 5 17 1 17 -13 0 -11 6 -20 14
-20 9 0 13 -8 10 -22 -2 -13 -1 -17 2 -10 5 10 14 6 35 -14 16 -15 29 -31 29
-36 0 -4 21 -36 47 -70 29 -38 43 -63 35 -66 -7 -2 -12 -9 -12 -15 0 -8 4 -7
12 1 20 20 31 14 24 -14 -6 -22 -4 -25 9 -20 25 9 38 -3 23 -21 -11 -14 -10
-15 9 -9 18 6 29 -3 67 -51 25 -32 46 -64 46 -71 0 -7 4 -11 8 -8 10 6 72 -48
72 -63 0 -6 5 -11 10 -11 20 0 108 -73 103 -85 -2 -8 3 -12 14 -12 10 1 17 -4
15 -12 -2 -8 3 -11 12 -8 11 5 108 -68 136 -102 3 -3 21 -17 40 -30 19 -14 39
-30 43 -38 4 -7 16 -13 25 -13 15 0 15 -2 2 -10 -13 -8 -12 -10 3 -10 10 0 33
-11 51 -25 18 -14 38 -25 43 -25 6 0 16 -7 23 -15 7 -9 34 -25 59 -36 58 -25
138 -68 171 -89 56 -38 90 -57 198 -111 62 -32 108 -60 102 -64 -5 -3 -10 -11
-10 -17 0 -6 8 -4 19 6 11 10 25 14 35 10 13 -5 14 -9 5 -14 -8 -5 -3 -8 12
-8 24 0 250 -66 279 -81 9 -5 31 -12 50 -16 19 -4 41 -11 50 -15 8 -5 49 -18
90 -30 108 -31 170 -60 159 -74 -5 -6 -23 -32 -39 -57 l-30 -46 -117 -7 c-109
-6 -260 -36 -248 -48 3 -2 -14 -15 -38 -27 -24 -12 -55 -32 -68 -44 -101 -91
-253 -171 -257 -135 -1 7 -6 62 -11 122 -5 60 -14 113 -20 119 -6 6 -11 17
-11 25 0 21 -37 95 -58 117 -78 80 -123 109 -151 100 -23 -7 -18 -36 10 -61
25 -23 24 -67 -3 -118 -13 -22 -26 -43 -29 -46 -3 -3 -15 -26 -27 -52 -25 -57
-80 -128 -99 -128 -8 0 -12 -4 -8 -9 11 -18 -133 -152 -250 -232 -139 -96
-223 -134 -330 -148 -38 -6 -71 -8 -73 -6 -3 2 13 30 34 62 48 72 60 92 74
121 5 13 21 46 34 75 58 126 76 224 76 416 0 141 -14 271 -30 271 -4 0 -11 16
-15 36 -3 20 -10 44 -15 53 -5 9 -21 45 -37 81 -15 36 -30 67 -34 70 -3 3 -16
23 -27 46 -11 22 -28 46 -36 53 -9 8 -16 17 -16 22 0 11 -51 98 -93 158 -25
36 -28 47 -18 62 7 12 7 19 1 19 -5 0 -10 -4 -10 -10 0 -5 -4 -10 -10 -10 -5
0 -10 5 -10 10 0 6 -5 16 -10 23 -13 16 -72 95 -85 115 -15 23 -65 80 -106
121 -19 20 -62 70 -95 111 -32 41 -66 82 -74 91 -44 48 -140 170 -152 193 -8
14 -7 17 2 11 8 -5 11 -3 8 6 -3 8 -10 14 -16 14 -6 0 -19 11 -29 25 -9 14
-49 59 -89 102 -58 61 -71 81 -67 99 5 17 3 21 -9 16 -17 -6 -58 42 -58 68 0
9 -4 14 -9 11 -4 -3 -21 17 -37 45 -16 28 -35 61 -41 72 -7 12 -13 30 -13 40
0 10 -4 15 -10 12 -5 -3 -10 0 -10 8 0 8 -7 20 -15 27 -9 7 -13 15 -11 17 3 3
-4 15 -15 27 -22 22 -69 115 -69 134 0 7 5 12 10 12 6 0 10 -4 10 -10 0 -5 6
-10 12 -10 7 0 -2 13 -19 29 -18 16 -35 42 -38 58 -4 15 -10 37 -15 48 -23 53
-50 146 -56 188 -4 26 -11 50 -15 53 -5 3 -9 16 -9 28 0 31 -23 51 -38 34 -5
-7 -11 -20 -13 -28 -9 -43 36 -231 87 -367 18 -49 21 -68 14 -88 -13 -33 -13
-58 0 -50 5 3 6 13 3 22 -4 11 -2 14 8 12 8 -3 30 -36 49 -75 19 -38 42 -81
51 -94 23 -37 51 -116 47 -137 -2 -12 2 -17 15 -15 13 2 17 -4 17 -28 0 -20 5
-30 15 -30 8 0 23 -17 33 -37 10 -21 31 -60 45 -87 25 -45 28 -74 6 -61 -14 9
-11 -8 7 -34 12 -17 13 -26 5 -34 -6 -6 -11 -15 -11 -19 0 -14 22 -8 36 10 12
15 12 12 3 -15 -6 -18 -9 -38 -6 -45 3 -7 6 -5 6 6 1 19 1 19 15 1 16 -22 11
-45 -10 -45 -8 0 -14 -4 -14 -10 0 -5 -7 -10 -15 -10 -8 0 -15 7 -15 15 0 8
-4 15 -9 15 -13 0 -83 70 -110 110 -13 19 -35 47 -49 62 -13 14 -21 31 -18 36
7 12 -12 26 -34 27 -9 0 -15 9 -14 22 0 12 -2 20 -6 18 -3 -2 -12 0 -20 5 -11
7 -12 11 0 24 7 9 9 20 5 24 -4 4 -10 2 -12 -5 -4 -12 -43 19 -43 35 0 5 -18
34 -40 66 -22 31 -40 59 -40 62 0 2 -11 21 -23 42 -13 20 -27 49 -30 64 -4 15
-13 33 -20 40 -7 7 -28 49 -46 93 -19 44 -43 100 -54 124 -16 35 -18 48 -9 62
7 10 12 22 12 26 0 5 -4 1 -10 -7 -5 -8 -12 -11 -16 -8 -14 15 -24 710 -13
958 4 79 3 155 -2 167 -8 22 -42 32 -52 16 -22 -36 -40 -948 -23 -1173 4 -41
8 -155 11 -252 4 -149 3 -178 -9 -178 -8 0 -16 3 -19 8 -2 4 -2 1 -1 -5 2 -7
0 -23 -5 -35 -8 -22 -8 -22 -26 5 -9 15 -22 24 -28 20 -6 -4 -8 0 -4 9 3 9 3
18 0 21 -6 7 -43 -30 -43 -42 0 -21 -18 -19 -28 2 -48 99 -72 159 -72 181 0
14 -4 26 -8 26 -20 0 -116 281 -108 315 4 17 2 24 -6 23 -8 -2 -19 21 -28 57
-9 33 -19 67 -22 75 -4 8 -12 54 -19 103 -7 48 -16 87 -20 87 -4 0 -9 15 -11
33 -5 30 -20 97 -37 157 -5 18 -13 25 -31 25 -23 0 -25 -3 -24 -45 2 -61 34
-264 43 -270 4 -3 15 -43 25 -90 9 -47 24 -103 32 -125 8 -22 15 -49 17 -60 2
-11 8 -29 14 -40 15 -29 25 -87 13 -80 -6 3 -10 -3 -10 -14 0 -13 7 -21 16
-21 10 0 14 -6 11 -15 -4 -8 -2 -17 3 -20 6 -4 10 0 10 7 1 7 11 -19 24 -58
13 -39 30 -82 40 -95 16 -23 23 -95 9 -86 -5 3 -8 -20 -9 -52 l-1 -56 14 34
c8 18 12 40 9 47 -3 7 -1 16 4 19 9 5 70 -112 70 -133 0 -4 9 -25 20 -47 11
-22 20 -45 20 -52 0 -7 5 -13 10 -13 6 0 15 -10 20 -22 6 -13 23 -43 39 -68
31 -47 38 -70 21 -70 -5 0 -10 7 -10 15 0 29 -44 86 -62 81 -19 -4 -22 3 -18
42 1 12 -4 22 -10 22 -7 0 -9 7 -6 16 4 10 2 14 -6 11 -7 -2 -11 -11 -9 -18 2
-8 3 -24 3 -36 -1 -13 3 -23 9 -23 6 0 9 -7 5 -15 -3 -8 -3 -22 0 -30 6 -14 8
-13 19 2 12 15 14 16 19 3 3 -8 5 -22 4 -30 -1 -8 2 -41 6 -72 6 -44 12 -58
25 -58 40 0 56 -60 24 -87 -10 -8 -13 -12 -6 -9 6 4 14 2 18 -4 3 -5 -1 -10
-9 -10 -9 0 -16 -4 -16 -9 0 -5 -2 -16 -5 -24 -4 -9 1 -13 14 -12 27 2 51 24
44 41 -3 8 -2 26 3 42 7 26 8 26 13 -13 4 -24 11 -39 19 -38 6 2 12 -2 12 -7
0 -6 -10 -10 -23 -10 -12 0 -28 -10 -36 -22 -14 -23 -14 -23 7 -5 21 20 69 20
65 0 -1 -6 6 -9 17 -6 27 7 54 -15 39 -33 -15 -19 -1 -39 17 -24 7 7 19 10 26
7 8 -4 7 -6 -4 -6 -20 -1 -24 -16 -6 -27 7 -5 8 -2 3 7 -5 8 -4 11 1 6 13 -12
11 -40 -3 -55 -12 -13 -7 -42 7 -42 4 0 5 -11 2 -25 -2 -14 -11 -25 -20 -25
-11 0 -13 -3 -5 -11 10 -10 63 -2 63 10 0 4 -5 12 -12 19 -9 9 -7 12 12 12 23
0 23 0 4 15 -11 8 -14 15 -6 15 14 0 17 30 2 30 -5 0 -10 18 -10 41 0 24 4 38
10 34 6 -3 10 -21 10 -39 0 -19 7 -39 16 -47 8 -7 13 -20 11 -30 -3 -12 0 -16
9 -12 8 3 14 9 14 14 0 16 22 9 41 -13 22 -27 25 -46 4 -28 -8 7 -23 9 -36 5
-21 -7 -21 -9 -6 -20 9 -7 17 -16 17 -20 0 -4 8 -14 18 -21 14 -10 19 -10 27
6 7 14 14 17 25 10 13 -9 13 -11 0 -20 -13 -9 -13 -11 0 -20 12 -8 12 -10 -5
-8 -11 0 -29 0 -40 -1 -18 -2 -17 -3 5 -13 24 -11 33 -13 56 -16 13 -2 26 -42
14 -42 -4 0 -13 6 -19 14 -6 7 -24 16 -39 19 -15 3 -43 21 -63 40 -35 34 -79
56 -79 40 0 -5 5 -14 12 -21 24 -24 -9 -12 -36 13 -15 14 -32 25 -38 25 -12 0
-1 53 13 58 14 6 11 19 -6 19 -8 0 -12 -3 -10 -7 2 -3 -5 -11 -16 -18 -16 -10
-19 -9 -19 4 0 8 -4 12 -10 9 -10 -6 -70 33 -70 47 0 12 -38 48 -51 48 -6 0
-9 7 -5 15 3 8 2 14 -2 12 -10 -3 -72 67 -72 81 0 5 7 16 17 23 13 11 17 11
20 2 3 -7 11 -13 19 -13 20 0 19 69 -1 76 -11 4 -15 21 -15 57 0 54 -19 87
-51 87 -9 0 -20 5 -22 10 -3 6 -4 5 -3 -2 1 -7 11 -15 22 -17 35 -6 44 -22 44
-78 0 -38 4 -55 15 -59 8 -4 15 -17 15 -30 0 -27 -3 -28 -31 -14 -15 9 -21 7
-25 -5 -3 -8 -11 -15 -17 -15 -6 0 -8 3 -4 6 3 4 -4 15 -16 25 -25 21 -17 25
15 8 18 -10 20 -9 15 5 -4 9 -2 16 4 16 6 0 7 5 3 11 -4 8 -9 7 -15 -2 -8 -11
-14 -9 -30 11 -12 14 -28 25 -37 25 -8 0 -17 6 -19 13 -7 20 35 14 57 -8 32
-32 50 -26 50 19 0 38 -1 39 -40 46 -25 4 -40 12 -40 21 0 8 -6 14 -12 14 -7
0 -23 3 -35 6 -21 6 -23 3 -23 -35 0 -26 5 -41 13 -41 8 0 7 -3 -3 -10 -22
-14 -17 -98 7 -115 10 -7 15 -17 10 -21 -4 -4 -7 -2 -7 4 0 8 -29 12 -95 12
l-94 0 -3 58 c-3 50 -6 57 -26 60 -19 3 -21 7 -15 30 10 35 8 155 -3 179 -4
10 -8 41 -9 68 0 28 -4 51 -10 52 -6 1 -10 -21 -9 -52 1 -50 -1 -55 -20 -55
-15 0 -22 7 -23 20 -1 12 4 20 13 20 12 0 14 7 9 33 -10 44 -13 47 -41 47 -17
0 -24 5 -24 20 0 18 -7 20 -54 20 -53 0 -55 -1 -62 -32 -7 -30 -9 -25 -20 43
-6 42 -16 85 -22 95 -6 11 -13 41 -15 67 -3 27 -11 54 -17 62 -6 7 -13 53 -16
102 -3 48 -9 104 -14 123 -16 66 -54 340 -90 645 -30 248 -40 1028 -17 1300 9
105 19 237 22 294 3 58 10 112 15 121 5 9 14 66 20 126 12 117 27 181 40 167
5 -4 27 -44 49 -88z m5801 -177 c30 -14 66 -30 80 -36 21 -8 25 -16 25 -48 0
-33 -4 -40 -22 -42 -14 -2 -29 -16 -38 -35 -23 -49 -104 -137 -125 -137 -32 0
-129 40 -160 67 -17 13 -30 34 -30 44 0 32 38 97 70 121 21 15 30 30 30 49 0
18 10 36 31 53 30 26 31 26 57 8 15 -10 52 -30 82 -44z m-1983 32 c3 -11 10
-20 15 -20 5 0 6 5 2 11 -4 7 -2 10 5 8 19 -7 46 -64 86 -179 20 -58 42 -118
49 -135 17 -39 46 -127 46 -139 0 -8 -33 26 -58 59 -13 17 -63 106 -104 185
-42 81 -83 204 -73 220 10 16 27 11 32 -10z m-1361 -346 c8 -20 13 -38 11 -41
-3 -2 -31 -11 -62 -19 l-57 -15 -49 33 c-27 18 -49 38 -49 45 0 6 19 14 43 17
23 3 53 7 67 10 71 10 80 7 96 -30z m669 -4 c3 -6 -1 -7 -9 -4 -18 7 -21 14
-7 14 6 0 13 -4 16 -10z m-899 -36 c24 -25 32 -40 26 -46 -14 -14 -111 -47
-138 -48 -30 0 -86 25 -107 48 -23 25 -9 37 75 61 91 27 103 26 144 -15z
m1039 -73 c-6 -5 -25 10 -25 20 0 5 6 4 14 -3 8 -7 12 -15 11 -17z m-1284 -8
c21 -16 39 -33 39 -39 0 -14 -81 -54 -111 -54 -13 0 -48 11 -78 25 -61 29 -59
39 12 74 56 28 91 26 138 -6z m1353 -42 c11 -12 15 -21 10 -21 -10 1 -64 46
-64 55 0 10 34 -12 54 -34z m-1727 -222 c35 -12 63 -27 63 -34 0 -6 -12 -22
-27 -35 -28 -24 -81 -39 -145 -40 -33 0 -38 3 -38 23 0 27 54 107 72 107 6 0
40 -10 75 -21z m-617 -239 c23 -52 55 -126 71 -164 41 -97 138 -281 160 -305
52 -56 134 -236 203 -446 59 -180 59 -195 1 -132 -68 74 -284 412 -329 517
-77 178 -161 420 -176 508 -14 86 -7 153 15 131 7 -8 32 -57 55 -109z m3406
-181 c44 -13 218 -169 196 -177 -6 -2 -36 13 -67 32 -30 20 -59 36 -64 36 -5
0 -11 3 -13 8 -1 4 -29 29 -60 55 -57 48 -75 76 -40 62 9 -4 31 -11 48 -16z
m-1866 -56 c8 -3 31 -20 51 -37 19 -17 44 -36 55 -43 18 -12 18 -13 -6 -34
-14 -12 -38 -46 -55 -77 -18 -34 -43 -64 -62 -75 -29 -16 -34 -17 -60 -3 -15
8 -43 29 -62 46 -30 28 -33 35 -27 72 5 28 20 56 51 92 25 28 45 58 45 67 0
25 12 30 34 14 12 -8 28 -18 36 -22z m5546 -575 c-16 -143 -44 -1576 -31
-1598 2 -3 4 -96 6 -205 1 -110 6 -208 11 -219 6 -10 14 -97 19 -193 5 -112
14 -192 25 -226 l16 -53 -41 -87 c-22 -47 -41 -91 -41 -97 0 -18 31 -11 62 15
16 14 34 25 38 25 13 0 28 -30 56 -118 14 -42 72 -169 130 -281 57 -112 104
-210 104 -218 0 -26 -59 -153 -95 -206 -144 -210 -286 -402 -357 -481 -52 -59
-66 -57 -122 14 -50 64 -79 129 -123 275 -65 215 -89 340 -99 500 -3 55 -12
152 -19 215 -19 153 -30 420 -19 420 5 0 32 -39 60 -87 144 -250 312 -497 397
-585 25 -26 68 -84 96 -130 68 -111 97 -146 110 -133 7 7 2 23 -14 50 -48 78
-124 241 -141 300 -106 386 -149 597 -176 875 -15 156 -15 1488 1 1730 8 131
16 181 37 245 39 121 74 243 74 262 0 13 26 42 39 43 2 0 1 -24 -3 -52z
m-7349 -1095 c1 -21 -1 -32 -4 -25 -2 6 -11 12 -19 12 -19 0 1 46 22 50 0 0 1
-17 1 -37z m-567 -63 c0 -11 -4 -20 -10 -20 -5 0 -10 9 -10 20 0 11 5 20 10
20 6 0 10 -9 10 -20z m-42 -17 c6 -15 12 -38 12 -52 0 -31 -16 -59 -27 -48 -4
5 -2 11 4 15 14 9 7 79 -8 88 -11 6 -12 24 -1 24 4 0 13 -12 20 -27z m109 -10
c-3 -10 -5 -4 -5 12 0 17 2 24 5 18 2 -7 2 -21 0 -30z m553 -28 c5 -3 10 -13
10 -21 0 -8 11 -27 24 -41 38 -41 52 -71 38 -85 -9 -9 -12 -8 -12 6 0 9 -5 14
-10 11 -6 -4 -13 7 -16 24 -4 18 -11 28 -17 24 -5 -3 -7 -1 -4 4 4 6 -7 30
-23 54 -16 24 -29 55 -29 69 1 24 1 23 15 -7 7 -17 18 -34 24 -38z m20 39 c0
-8 -4 -12 -10 -9 -5 3 -10 10 -10 16 0 5 5 9 10 9 6 0 10 -7 10 -16z m-712
-55 c-3 -33 -4 -33 -8 8 -3 23 -2 39 3 34 5 -5 7 -24 5 -42z m782 18 c0 -43
-18 -51 -18 -8 -1 23 3 39 9 36 5 -4 9 -16 9 -28z m-698 1 c-6 -7 -14 -46 -18
-86 -4 -47 -10 -69 -15 -60 -12 18 -11 75 1 83 6 3 10 19 10 34 0 29 7 41 23
41 6 0 5 -5 -1 -12z m654 -35 c-11 -12 -27 13 -20 32 7 17 8 17 17 -3 6 -12 7
-25 3 -29z m51 -35 c-3 -8 -6 -5 -6 6 -1 11 2 17 5 13 3 -3 4 -12 1 -19z
m-644 -48 c-3 -11 -10 -20 -15 -20 -5 0 -6 -5 -2 -12 4 -7 3 -8 -4 -4 -12 7
-5 37 12 48 15 10 15 11 9 -12z m-97 -53 c15 -8 20 -47 6 -47 -9 0 -33 60 -31
81 1 8 4 5 6 -6 3 -11 11 -24 19 -28z m764 -32 c0 -27 -3 -36 -9 -26 -5 8 -7
21 -4 29 3 8 0 18 -7 22 -8 5 -10 15 -6 26 11 28 26 -2 26 -51z m-195 45 c3
-5 1 -10 -4 -10 -6 0 -11 5 -11 10 0 6 2 10 4 10 3 0 8 -4 11 -10z m-505 -46
c0 -28 -17 -28 -34 -1 -8 13 -7 20 4 27 20 12 30 3 30 -26z m8623 -46 c-5 -71
-13 -74 -13 -5 0 32 4 57 9 57 4 0 7 -23 4 -52z m-8632 12 c5 0 9 -10 9 -21 0
-18 -3 -19 -15 -9 -8 6 -19 9 -25 5 -6 -3 -10 3 -10 15 0 16 4 20 16 16 9 -3
20 -6 25 -6z m8705 -72 c7 -14 26 -36 40 -47 17 -14 21 -21 12 -21 -9 0 -27 9
-42 21 -16 12 -26 16 -26 8 0 -12 -29 -38 -42 -39 -5 0 -8 7 -8 16 0 8 5 12
10 9 6 -3 10 1 10 9 0 8 -5 18 -10 21 -6 4 -8 11 -4 16 3 5 10 7 15 4 15 -10
10 32 -6 45 -8 7 -12 16 -9 22 7 10 39 -24 60 -64z m-7273 10 c9 -10 17 -21
17 -25 0 -3 8 -15 17 -25 16 -18 15 -20 -5 -41 -13 -13 -22 -16 -22 -9 0 9 -7
11 -19 7 -16 -5 -19 -2 -15 17 2 13 1 17 -2 10 -5 -10 -9 -10 -20 -1 -12 10
-12 14 -2 20 7 4 12 28 12 56 -1 39 1 44 10 29 6 -11 19 -28 29 -38z m-1447
-15 c-10 -10 -19 5 -10 18 6 11 8 11 12 0 2 -7 1 -15 -2 -18z m1374 -14 c-7
-11 -14 -18 -17 -15 -8 8 5 36 17 36 7 0 7 -6 0 -21z m7180 -48 c0 -42 38
-242 50 -263 6 -10 10 -24 10 -33 0 -42 70 -221 131 -336 10 -20 25 -48 32
-62 81 -156 264 -344 436 -448 18 -11 31 -22 29 -24 -5 -5 -92 17 -98 25 -3 4
-27 13 -55 20 -125 34 -325 167 -423 282 -24 29 -47 55 -51 58 -7 6 -27 39
-53 89 -23 44 -48 71 -66 71 -25 0 -8 -71 30 -131 52 -81 85 -143 114 -211 38
-90 171 -285 253 -370 24 -26 42 -50 39 -54 -4 -3 -35 4 -71 15 -35 12 -73 23
-85 26 -53 10 -112 70 -246 248 -45 62 -136 166 -200 232 l-118 120 33 65 c17
36 42 79 54 95 12 17 34 61 49 99 15 38 37 87 49 110 12 22 28 57 35 76 32 89
91 268 97 298 8 40 25 42 25 3z m185 -11 c-3 -5 -13 -10 -21 -10 -8 0 -14 5
-14 10 0 6 9 10 21 10 11 0 17 -4 14 -10z m-8695 -17 c1 -17 1 -17 14 0 16 21
26 22 26 3 0 -8 4 -16 10 -18 6 -2 6 -8 0 -18 -8 -13 -10 -12 -10 3 0 9 -4 17
-10 17 -5 0 -10 -7 -10 -15 0 -23 -16 -18 -28 10 -15 32 -15 35 -2 35 6 0 10
-8 10 -17z m701 -26 c11 -10 19 -23 19 -28 0 -6 -13 3 -30 21 -16 18 -27 37
-23 43 4 7 8 6 11 -3 3 -8 13 -23 23 -33z m8079 3 c0 -18 -19 -11 -30 11 -11
19 -10 20 9 9 12 -6 21 -15 21 -20z m-7370 10 c0 -5 -7 -7 -15 -4 -8 4 -15 8
-15 10 0 2 7 4 15 4 8 0 15 -4 15 -10z m37 -10 c-3 -12 0 -20 8 -20 7 0 15 -7
19 -15 7 -19 2 -19 -32 2 -15 9 -28 18 -30 19 -1 0 0 9 4 18 9 24 38 21 31 -4z
m45 -5 c6 -14 15 -25 20 -25 4 0 8 -5 8 -11 0 -6 12 -25 26 -42 17 -20 22 -33
15 -35 -18 -6 -50 28 -44 45 5 12 1 14 -16 8 -19 -6 -21 -4 -16 17 4 16 1 29
-9 37 -18 15 -21 31 -6 31 6 0 16 -11 22 -25z m-1182 -31 c0 -21 -4 -33 -10
-29 -17 10 -11 65 7 65 2 0 3 -16 3 -36z m44 20 c4 -10 1 -14 -6 -12 -15 5
-23 28 -10 28 5 0 13 -7 16 -16z m8326 -10 c0 -8 -4 -12 -10 -9 -5 3 -10 10
-10 16 0 5 5 9 10 9 6 0 10 -7 10 -16z m90 -5 c0 -14 -27 -10 -33 5 -4 10 0
12 14 9 10 -3 19 -9 19 -14z m61 -39 c6 0 8 -7 5 -16 -3 -8 -2 -13 3 -10 5 3
17 -6 27 -19 13 -17 25 -23 38 -19 12 4 17 2 14 -7 -7 -21 -22 -21 -46 1 -25
23 -32 25 -32 8 0 -7 14 -22 30 -33 16 -11 30 -23 30 -27 0 -16 -40 -7 -53 12
-18 25 -63 32 -59 9 1 -10 -6 -19 -19 -22 -45 -12 -66 19 -31 45 12 8 17 24
16 45 -2 31 0 32 30 27 30 -5 30 -5 11 11 -17 13 -18 17 -5 25 11 7 17 4 22
-10 4 -11 12 -20 19 -20z m-8441 -1 c0 -6 -4 -7 -10 -4 -5 3 -10 11 -10 16 0
6 5 7 10 4 6 -3 10 -11 10 -16z m8305 -29 c-9 -14 -25 5 -25 30 0 12 3 12 16
-2 9 -9 13 -21 9 -28z m-8517 -45 c-2 -36 0 -65 4 -65 4 0 8 -11 8 -25 0 -14
-4 -25 -10 -25 -5 0 -10 11 -10 25 0 14 -4 25 -10 25 -5 0 -10 -9 -10 -19 0
-26 -18 -37 -26 -16 -4 9 4 26 20 42 21 21 26 35 26 74 0 27 3 49 6 49 4 0 4
-29 2 -65z m-98 45 c0 -4 -5 -11 -11 -17 -9 -9 -7 -16 5 -29 10 -9 15 -23 12
-30 -3 -8 2 -14 12 -15 10 0 12 -3 5 -6 -7 -2 -13 -11 -13 -19 0 -30 -18 -3
-24 36 -3 22 -11 40 -16 40 -6 0 -10 8 -10 18 0 14 -2 15 -10 2 -10 -16 -13
-10 -5 12 5 12 55 19 55 8z m8599 -73 c0 -29 2 -74 6 -102 4 -27 5 -48 2 -45
-12 11 -38 164 -32 187 10 40 26 14 24 -40z m-8216 7 c-3 -9 2 -14 13 -14 14
0 15 -3 6 -12 -9 -9 -6 -18 13 -38 23 -24 24 -28 10 -40 -19 -16 -19 -27 -1
-45 12 -12 15 -12 19 -1 4 9 15 13 29 9 22 -4 22 -4 4 11 -10 8 -24 17 -30 20
-7 3 -6 8 3 14 12 9 12 13 2 26 -8 9 -9 16 -3 16 17 0 33 -27 26 -45 -6 -14
-3 -16 14 -11 14 5 27 0 41 -15 29 -32 27 -47 -6 -41 -26 5 -27 4 -13 -13 8
-10 10 -16 4 -12 -7 4 -15 -1 -18 -10 -5 -12 -10 -13 -18 -5 -6 6 -16 8 -23 5
-7 -2 -15 4 -18 14 -11 45 -3 -69 9 -122 8 -33 14 -84 14 -112 l0 -53 98 -2
c53 -1 129 -2 167 -3 l70 0 3 -38 c3 -39 22 -42 22 -3 0 14 6 23 16 23 12 0
14 -7 10 -30 -3 -16 -6 -37 -6 -46 0 -14 -2 -14 -10 -1 -6 10 -10 11 -10 3 0
-22 4 -27 28 -28 20 -1 22 3 17 35 -4 29 -3 31 4 10 5 -14 16 -38 25 -55 9
-16 16 -34 16 -38 0 -5 9 -20 20 -34 11 -14 20 -34 20 -44 0 -9 3 -19 8 -21
16 -7 81 -118 76 -131 -3 -8 2 -20 11 -27 12 -10 15 -10 15 1 0 8 18 -14 40
-49 22 -34 40 -65 40 -68 0 -3 13 -16 30 -30 38 -32 61 -79 47 -93 -6 -6 -7
-14 -3 -18 4 -4 11 -2 15 5 9 15 41 6 41 -12 0 -6 14 -24 30 -40 17 -16 30
-33 30 -38 0 -4 7 -8 16 -8 8 0 12 -4 9 -10 -3 -5 -1 -10 5 -10 16 0 79 -43
85 -59 11 -27 -121 16 -135 44 -3 6 -9 9 -14 7 -17 -6 -385 182 -391 200 -3 9
-12 15 -20 12 -8 -3 -31 7 -52 22 -127 93 -142 106 -136 121 4 11 2 14 -5 9
-7 -4 -12 -1 -12 8 0 8 -12 24 -27 36 -20 16 -28 18 -35 8 -7 -10 -11 -10 -21
3 -6 8 -20 18 -30 22 -10 4 -15 11 -12 17 3 5 -1 10 -9 10 -9 0 -16 4 -16 9 0
17 20 23 35 11 8 -7 15 -9 15 -6 0 4 9 2 19 -4 16 -8 19 -7 17 7 -2 9 -8 19
-14 21 -7 2 -9 9 -6 14 5 7 2 8 -6 3 -7 -4 -16 -2 -21 6 -9 15 -12 12 -39 -31
-8 -13 -12 -11 -32 9 -16 16 -19 25 -10 28 23 9 12 25 -14 20 -20 -4 -35 4
-71 39 -24 24 -42 48 -39 53 4 5 2 12 -4 16 -19 12 -10 27 13 21 17 -4 30 1
45 19 19 22 20 25 4 25 -16 1 -16 2 1 14 14 11 20 33 24 95 5 80 -6 119 -28
105 -13 -8 -11 -118 3 -132 9 -9 9 -12 0 -12 -7 0 -12 -9 -12 -21 0 -11 -4
-18 -9 -15 -5 4 -11 2 -13 -3 -1 -4 -10 7 -20 26 -15 32 -15 34 0 28 9 -3 13
-3 9 1 -4 4 -2 13 4 21 15 18 -8 103 -30 110 -67 22 -90 39 -86 61 2 14 -2 25
-11 29 -8 3 -14 13 -14 22 0 10 -11 28 -26 42 -18 17 -23 19 -18 6 3 -9 1 -17
-4 -17 -13 0 -25 36 -17 50 4 7 12 7 25 0 30 -16 33 -13 26 44 l-7 54 30 7
c17 3 40 4 51 0 12 -4 26 0 36 9 9 9 20 13 26 10 6 -4 6 1 -1 14 -15 28 -14
31 8 25 12 -3 17 -11 14 -19z m8262 -100 c6 -37 5 -38 -8 -14 -8 14 -17 41
-21 60 -6 33 -5 34 8 14 8 -11 17 -38 21 -60z m-8595 -22 c0 -12 -3 -12 -15
-2 -8 7 -15 22 -15 34 1 21 1 21 15 2 8 -11 15 -26 15 -34z m105 0 c-3 -3 -11
0 -18 7 -9 10 -8 11 6 5 10 -3 15 -9 12 -12z m8422 -4 c-3 -8 -6 -5 -6 6 -1
11 2 17 5 13 3 -3 4 -12 1 -19z m58 -55 c-3 -14 -1 -31 6 -39 6 -7 9 -19 6
-26 -3 -8 -6 -6 -6 6 -1 12 -6 16 -17 12 -12 -5 -15 -2 -10 10 3 8 6 29 6 45
0 19 4 28 11 23 6 -3 8 -17 4 -31z m-7905 9 c0 -4 23 -18 50 -31 28 -13 50
-30 50 -39 0 -11 3 -12 13 -3 16 13 27 5 27 -21 0 -22 23 -24 40 -3 12 15 60
21 60 9 0 -4 -8 -13 -17 -20 -17 -11 -15 -14 12 -24 18 -8 25 -14 17 -17 -8
-3 -30 2 -50 10 -21 8 -44 18 -52 21 -16 7 -40 22 -124 79 -59 40 -65 47 -41
47 8 0 15 -3 15 -8z m-127 -9 c3 -5 -8 -8 -24 -9 -15 -1 -26 3 -23 7 6 11 41
12 47 2z m-526 -25 c-3 -8 -6 -5 -6 6 -1 11 2 17 5 13 3 -3 4 -12 1 -19z
m9263 13 c0 -6 19 -14 43 -19 23 -6 32 -10 20 -11 -12 -1 -25 -5 -28 -11 -10
-16 -23 -12 -30 10 -3 11 -13 20 -21 20 -8 0 -14 5 -14 10 0 6 7 10 15 10 8 0
15 -4 15 -9z m-8720 -16 c5 3 13 -1 16 -9 3 -9 11 -16 18 -16 22 -1 59 -37 60
-60 0 -13 7 -25 15 -28 10 -3 12 1 9 16 -6 21 -5 21 18 4 30 -22 36 -39 24
-62 -7 -13 -7 -21 0 -25 11 -7 -12 -35 -29 -35 -6 0 -11 -4 -11 -9 0 -16 -40
-20 -54 -5 -11 11 -15 11 -19 1 -2 -6 -4 7 -4 31 0 37 1 40 13 25 10 -15 15
-16 26 -5 11 11 10 12 -5 6 -13 -5 -16 -2 -11 10 3 9 1 16 -5 16 -6 0 -11 5
-11 10 0 16 14 12 38 -11 13 -11 19 -25 15 -32 -10 -17 -11 -47 -1 -41 5 4 7
12 4 20 -7 19 12 28 29 14 18 -15 20 1 3 18 -8 8 -8 15 0 25 15 18 5 28 -22
22 -13 -3 -32 5 -51 20 -16 14 -22 23 -12 19 10 -4 17 -1 17 6 0 16 -28 42
-32 30 -5 -17 -105 -25 -123 -10 -16 14 -21 45 -5 35 6 -3 10 -1 10 5 0 6 5 8
10 5 7 -4 7 -13 0 -26 -9 -15 -7 -19 5 -19 8 0 15 5 15 10 0 6 7 10 15 10 8 0
15 5 15 10 0 6 -7 10 -15 10 -16 0 -20 12 -8 23 3 4 12 2 19 -4 7 -6 18 -8 24
-4z m281 -42 c-9 -15 -10 -13 -11 13 0 17 3 34 8 38 11 12 14 -32 3 -51z
m-785 1 c4 -22 9 -31 14 -24 11 18 32 2 25 -20 -4 -12 1 -19 15 -23 11 -3 20
-12 20 -21 0 -25 -24 -19 -42 12 -10 15 -28 40 -41 55 -16 17 -23 35 -20 47 7
28 21 15 29 -26z m6697 -146 c9 -90 21 -188 27 -218 5 -30 14 -84 19 -120 10
-63 18 -100 40 -185 5 -22 26 -116 46 -210 38 -179 55 -241 88 -315 36 -83 45
-105 52 -130 3 -14 10 -34 14 -45 5 -11 17 -40 27 -65 10 -25 62 -110 115
-190 95 -143 176 -235 264 -302 24 -18 47 -41 51 -51 8 -26 -33 -76 -149 -175
-55 -48 -143 -126 -196 -175 -84 -77 -161 -136 -391 -296 -36 -25 -105 -77
-155 -116 -166 -130 -189 -144 -355 -221 -58 -27 -132 -65 -165 -84 -33 -20
-145 -81 -250 -134 -104 -54 -196 -103 -202 -108 -7 -6 -23 -37 -35 -70 -24
-67 -30 -64 -48 27 -15 75 -23 90 -68 129 -20 17 -66 58 -102 91 -36 34 -99
86 -140 116 -137 102 -240 230 -352 435 -21 38 -66 112 -100 164 -92 142 -181
285 -234 375 -26 44 -97 156 -157 250 -163 251 -155 229 -161 435 -5 193 -14
249 -51 328 -14 29 -25 55 -25 57 0 6 46 -4 80 -18 14 -6 33 -9 43 -8 9 1 17
-3 17 -8 0 -6 9 -11 20 -11 10 0 43 -8 72 -18 85 -30 119 -40 183 -56 33 -8
96 -24 140 -36 143 -38 336 -42 440 -11 17 5 55 12 85 16 30 3 64 10 75 15 11
4 43 13 70 20 28 6 92 31 142 56 51 24 97 44 102 44 5 0 45 26 89 59 43 32 90
64 102 71 13 7 29 17 34 21 6 5 47 37 91 71 44 34 82 65 83 70 2 4 8 8 12 8
17 0 337 313 555 542 72 75 133 137 136 137 3 1 13 -72 22 -161z m-6603 131
c0 -5 -4 -9 -10 -9 -5 0 -10 7 -10 16 0 8 5 12 10 9 6 -3 10 -10 10 -16z m844
-65 c28 -26 50 -51 49 -55 -2 -5 6 -9 17 -9 11 0 20 -7 20 -16 0 -14 -2 -14
-22 0 -12 9 -30 16 -40 16 -10 0 -18 4 -18 10 0 5 -11 12 -25 16 -21 5 -23 9
-14 26 11 21 -1 37 -28 38 -6 0 -15 5 -18 10 -3 6 1 10 10 10 10 0 40 -21 69
-46z m-614 -80 c0 -30 -4 -54 -10 -54 -6 0 -10 27 -10 61 0 37 4 58 10 54 6
-3 10 -31 10 -61z m-216 41 c3 -8 16 -15 30 -15 24 0 56 -23 56 -41 0 -5 -4
-9 -10 -9 -5 0 -10 5 -10 10 0 6 -7 10 -16 10 -21 0 -13 -23 13 -35 17 -7 20
-15 16 -37 -5 -27 11 -41 19 -17 2 6 4 -14 5 -45 1 -34 -2 -54 -8 -50 -5 3 -7
14 -4 25 5 14 3 17 -9 13 -9 -3 -16 -2 -17 2 -3 32 -11 53 -38 91 -17 24 -31
48 -31 53 0 6 -6 10 -14 10 -9 0 -12 8 -8 25 5 28 17 33 26 10z m116 -5 c0 -5
-7 -10 -15 -10 -8 0 -15 5 -15 10 0 6 7 10 15 10 8 0 15 -4 15 -10z m8350 -6
c0 -8 -4 -12 -10 -9 -5 3 -10 10 -10 16 0 5 5 9 10 9 6 0 10 -7 10 -16z
m-7880 -53 c0 -3 -4 -12 -9 -20 -11 -16 -32 -6 -25 13 5 12 34 19 34 7z m-50
-21 c0 -5 -8 -10 -17 -10 -15 0 -16 2 -3 10 19 12 20 12 20 0z m70 -12 c0 -16
-3 -19 -11 -11 -6 6 -8 16 -5 22 11 17 16 13 16 -11z m7930 -8 c0 -5 -5 -10
-11 -10 -5 0 -7 5 -4 10 3 6 8 10 11 10 2 0 4 -4 4 -10z m-870 -20 c0 -12 -28
-25 -36 -17 -9 9 6 27 22 27 8 0 14 -5 14 -10z m905 -19 c-3 -17 -2 -32 4 -36
6 -3 11 -11 11 -17 0 -5 -13 4 -30 22 -28 30 -41 58 -21 45 5 -3 12 -1 16 5
13 21 26 9 20 -19z m44 -7 c-10 -23 -13 -25 -16 -11 -3 10 1 25 8 33 17 21 21
11 8 -22z m41 26 c0 -5 -2 -10 -4 -10 -3 0 -8 5 -11 10 -3 6 -1 10 4 10 6 0
11 -4 11 -10z m-1 -108 c-14 -5 -39 6 -39 17 0 5 11 4 25 -2 13 -7 20 -14 14
-15z m-786 -2 c17 -9 60 -60 105 -125 42 -60 119 -163 171 -229 53 -65 111
-137 129 -160 159 -197 362 -420 572 -626 181 -178 190 -195 190 -341 0 -157
-61 -560 -105 -692 -13 -40 -49 -157 -79 -262 -74 -257 -174 -555 -251 -755
-35 -91 -67 -176 -71 -190 -3 -14 -29 -69 -55 -122 -27 -54 -49 -102 -49 -107
0 -6 -25 -63 -56 -128 -31 -65 -69 -152 -86 -193 -40 -101 -116 -240 -132
-240 -13 0 -218 80 -263 103 -15 8 -82 33 -148 55 -66 22 -183 66 -260 97
-251 100 -448 132 -900 142 -187 4 -296 2 -355 -6 -137 -19 -372 -60 -407 -70
-22 -7 -35 -6 -41 2 -10 14 -125 366 -178 547 -41 142 -57 169 -74 126 -8 -22
-3 -49 31 -153 44 -134 44 -150 11 -225 -11 -24 -27 -65 -37 -93 -10 -27 -23
-63 -30 -80 -7 -16 -16 -41 -20 -55 -4 -14 -14 -34 -21 -45 -8 -11 -14 -27
-14 -37 0 -10 -4 -18 -10 -18 -5 0 -10 -6 -10 -13 0 -18 -78 -95 -103 -103
-11 -4 -27 2 -40 14 -12 11 -59 41 -104 67 -84 48 -168 72 -317 90 -43 6 -78
19 -128 49 -37 22 -70 46 -72 53 -5 13 137 161 324 338 101 95 161 136 223
150 20 4 27 11 25 23 -5 28 -54 26 -106 -4 -74 -42 -124 -86 -327 -286 -104
-103 -196 -188 -203 -188 -7 0 -77 43 -155 96 -160 109 -343 205 -432 228
-171 43 -515 51 -820 20 -230 -23 -290 -24 -290 -4 4 289 25 728 46 955 13
135 71 403 161 740 37 137 68 191 172 301 61 62 118 136 157 199 34 55 92 147
129 205 59 93 127 212 213 375 23 44 30 50 57 49 50 -3 79 -30 116 -112 76
-166 111 -392 60 -392 -23 0 -54 101 -71 233 -5 38 -10 47 -26 47 -16 0 -19
-7 -19 -47 0 -107 56 -249 190 -478 29 -49 94 -162 145 -250 51 -88 115 -196
143 -240 28 -44 64 -102 80 -130 89 -155 196 -321 258 -400 38 -49 92 -121
119 -160 26 -38 71 -94 99 -124 63 -66 247 -225 297 -257 21 -13 49 -43 62
-66 24 -43 29 -78 41 -320 2 -48 14 -59 69 -65 39 -5 47 -2 60 18 8 13 17 56
21 96 10 119 26 175 56 203 30 27 76 51 295 155 133 62 283 147 387 218 26 18
105 65 175 105 128 73 240 157 436 327 57 50 128 109 158 132 132 104 182 147
221 189 23 25 77 77 120 116 77 69 79 70 109 58 41 -17 61 0 30 26 -33 29 -35
25 94 176 193 226 294 369 390 553 61 117 66 172 30 352 -32 158 -110 366
-145 388 -24 15 -22 -8 10 -87 45 -113 67 -184 89 -292 42 -200 37 -256 -15
-174 -45 70 -154 304 -180 387 -14 42 -31 90 -39 108 -21 44 -19 64 13 103 16
19 40 56 55 82 25 43 53 70 67 64 3 -1 18 -8 33 -16z m765 -45 c-3 -3 -9 2
-12 12 -6 14 -5 15 5 6 7 -7 10 -15 7 -18z m132 -13 c0 -15 5 -33 11 -39 9 -9
7 -11 -7 -7 -14 4 -19 15 -20 40 0 18 3 34 8 34 4 0 8 -13 8 -28z m-54 -3 c13
-22 -12 -30 -31 -9 -18 19 -18 20 3 20 11 0 24 -5 28 -11z m139 -49 c-3 -5
-17 -10 -31 -10 -13 0 -24 5 -24 10 0 6 14 10 31 10 17 0 28 -4 24 -10z m39
-26 c4 -9 4 -19 1 -22 -3 -3 -5 0 -5 6 0 7 -7 12 -15 12 -8 0 -15 5 -15 10 0
16 27 11 34 -6z m-84 -14 c0 -4 -11 -10 -25 -12 -19 -4 -25 -1 -25 12 0 13 6
16 25 12 14 -2 25 -8 25 -12z m58 -23 c4 -21 -24 -13 -32 9 -4 11 -1 14 11 12
10 -2 19 -11 21 -21z m326 5 c2 -4 -13 -6 -35 -4 -21 2 -39 6 -39 8 0 7 69 4
74 -4z m-369 -23 c11 -17 0 -20 -21 -4 -17 13 -17 14 -2 15 9 0 20 -5 23 -11z
m-387 -47 c2 -29 -8 -21 -26 20 -11 25 -10 27 6 17 10 -6 19 -23 20 -37z m452
18 c0 -5 17 -10 38 -10 20 0 45 -7 55 -14 16 -12 16 -17 5 -35 -7 -12 -17 -21
-23 -21 -18 0 -115 72 -109 81 7 12 34 11 34 -1z m133 -11 c-8 -8 -16 -8 -30
0 -16 9 -14 10 12 11 21 0 26 -3 18 -11z m97 -14 c0 -8 -9 -15 -20 -15 -11 0
-20 4 -20 10 0 5 7 7 15 4 8 -4 15 -1 15 5 0 6 2 11 5 11 3 0 5 -7 5 -15z
m-632 -4 c10 -6 10 -10 -2 -20 -8 -7 -12 -19 -9 -27 3 -8 1 -14 -5 -14 -14 0
-24 29 -17 51 7 21 13 23 33 10z m-8053 -41 c3 -5 2 -10 -4 -10 -5 0 -13 5
-16 10 -3 6 -2 10 4 10 5 0 13 -4 16 -10z m8092 -6 c14 -13 14 -17 2 -25 -20
-12 -2 -11 22 2 15 7 24 7 34 -1 8 -7 19 -9 24 -5 7 4 8 0 5 -10 -5 -12 -14
-15 -30 -11 -21 6 -24 3 -24 -24 0 -36 -17 -40 -26 -6 -3 14 -13 27 -21 30
-11 5 -14 2 -9 -11 5 -15 4 -15 -9 1 -10 14 -12 23 -4 32 5 6 9 16 8 20 -5 28
6 31 28 8z m592 -30 c2 -2 -12 -4 -33 -4 -22 0 -35 4 -31 10 5 9 52 4 64 -6z
m107 -38 c-11 -18 -12 -26 -3 -29 6 -2 9 -8 4 -12 -4 -5 -13 -3 -19 3 -7 7
-23 12 -37 12 -20 0 -17 4 20 24 55 31 54 31 35 2z m-449 -22 c-3 -3 -12 -4
-19 -1 -8 3 -5 6 6 6 11 1 17 -2 13 -5z m-7 -30 c0 -2 -7 -4 -15 -4 -8 0 -15
4 -15 10 0 5 7 7 15 4 8 -4 15 -8 15 -10z m422 -1 c21 -3 36 -9 33 -12 -7 -12
-85 -13 -85 -1 0 5 -19 10 -42 9 l-43 -1 30 -13 30 -14 -37 -1 c-31 0 -40 -5
-52 -28 -19 -37 -1 -62 43 -62 18 0 39 -6 47 -14 12 -13 9 -14 -28 -10 -87 9
-83 6 -86 67 -3 49 0 57 20 68 28 16 97 28 118 22 8 -3 32 -7 52 -10z m-278
-14 c-8 -14 -24 -10 -24 6 0 9 6 12 15 9 8 -4 12 -10 9 -15z m-194 7 c0 -9
-30 -14 -35 -6 -4 6 3 10 14 10 12 0 21 -2 21 -4z m137 -2 c-3 -3 -12 -4 -19
-1 -8 3 -5 6 6 6 11 1 17 -2 13 -5z m-257 -24 c0 -5 -4 -10 -10 -10 -5 0 -10
5 -10 10 0 6 5 10 10 10 6 0 10 -4 10 -10z m120 -14 c0 -3 -4 -8 -10 -11 -5
-3 -10 -1 -10 4 0 6 5 11 10 11 6 0 10 -2 10 -4z m387 -22 c-9 -9 -28 6 -21
18 4 6 10 6 17 -1 6 -6 8 -13 4 -17z m-340 -6 c-3 -8 -6 -5 -6 6 -1 11 2 17 5
13 3 -3 4 -12 1 -19z m-92 -28 c3 -5 1 -10 -4 -10 -6 0 -11 5 -11 10 0 6 2 10
4 10 3 0 8 -4 11 -10z m35 -30 c0 -5 -2 -10 -4 -10 -3 0 -8 5 -11 10 -3 6 -1
10 4 10 6 0 11 -4 11 -10z m202 -31 c-4 -4 -27 -9 -52 -13 -44 -6 -44 -5 -15
8 30 13 80 17 67 5z m137 -5 c2 -2 -12 -4 -33 -4 -22 0 -35 4 -31 10 5 9 52 4
64 -6z m121 1 c0 -8 -7 -15 -15 -15 -16 0 -20 12 -8 23 11 12 23 8 23 -8z
m-40 -21 c0 -8 4 -12 10 -9 5 3 18 1 27 -4 16 -9 15 -10 -7 -11 -25 0 -50 16
-50 32 0 4 5 8 10 8 6 0 10 -7 10 -16z m-145 -6 c19 -9 28 -9 37 0 15 15 68
16 68 2 0 -5 -6 -10 -12 -11 -7 -1 -2 -5 12 -9 16 -5 4 -7 -35 -4 -94 8 -126
14 -120 25 8 12 19 11 50 -3z m-83 -16 c38 -16 47 -35 11 -26 -15 4 -36 11
-45 15 -9 5 -26 9 -37 9 -12 0 -21 3 -21 8 0 10 60 6 92 -6z m-6078 -33 c-3
-5 -1 -9 4 -9 30 0 59 -151 48 -244 -9 -69 -53 -118 -98 -108 -21 4 -35 130
-20 184 5 19 8 55 6 80 -3 32 1 49 11 58 8 7 15 21 15 30 0 10 3 26 7 36 6 16
7 16 19 -1 7 -10 11 -22 8 -26z m6266 -74 c-14 -8 -38 -14 -55 -14 l-30 -1 25
14 c14 8 39 14 55 15 l30 0 -25 -14z m101 -49 c13 -5 15 -14 10 -34 -10 -37
-52 -38 -61 -2 -4 17 -12 24 -24 22 -15 -3 -16 -1 -6 10 13 14 54 16 81 4z
m-106 -28 c41 -27 43 -39 9 -55 -22 -10 -29 -8 -57 17 -25 23 -28 29 -14 30 9
0 17 7 17 15 0 20 4 19 45 -7z m48 -93 c8 -7 26 -17 41 -21 14 -3 30 -13 35
-22 8 -14 11 -14 27 -2 16 14 16 13 3 -7 -17 -28 -20 -28 -45 -5 -22 20 -72
54 -94 64 -13 5 -12 7 2 7 9 1 23 -6 31 -14z m97 -17 c0 -13 -23 -5 -28 10 -2
7 2 10 12 6 9 -3 16 -11 16 -16z m-20 -81 c0 -6 -13 2 -30 18 -16 16 -30 30
-30 33 0 2 14 -6 30 -18 17 -12 30 -26 30 -33z m70 -16 c0 -14 -44 -21 -55 -9
-7 8 -6 9 3 4 6 -4 12 -2 12 3 0 6 9 11 20 11 11 0 20 -4 20 -9z m0 -42 c0 -7
10 -9 27 -4 23 5 25 4 14 -9 -11 -13 -11 -19 0 -33 13 -15 12 -15 -6 -6 -11 6
-31 23 -44 37 -20 21 -21 26 -8 26 9 0 17 -5 17 -11z m160 -60 c0 -14 5 -19
15 -16 29 12 24 -12 -11 -48 l-36 -37 -20 22 c-11 11 -17 27 -14 35 4 10 -1
14 -16 12 -11 -1 -23 5 -26 13 -3 8 -1 12 3 8 5 -4 14 -3 22 3 10 9 17 8 28
-1 11 -10 18 -9 30 3 13 14 13 16 -3 20 -13 4 -11 5 6 6 16 1 22 -5 22 -20z
m130 -209 c0 -5 -5 -10 -11 -10 -5 0 -7 5 -4 10 3 6 8 10 11 10 2 0 4 -4 4
-10z m60 -50 c0 -5 -4 -10 -10 -10 -5 0 -10 5 -10 10 0 6 5 10 10 10 6 0 10
-4 10 -10z m60 0 c0 -5 -4 -10 -10 -10 -5 0 -10 5 -10 10 0 6 5 10 10 10 6 0
10 -4 10 -10z m-45 -58 c-6 -6 -34 11 -39 24 -4 11 0 10 18 -3 13 -10 23 -19
21 -21z m45 9 c0 -6 -4 -13 -10 -16 -5 -3 -10 1 -10 9 0 9 5 16 10 16 6 0 10
-4 10 -9z m93 -118 c-4 -9 -10 -10 -24 -2 -25 13 -24 17 5 15 14 0 22 -6 19
-13z m130 -95 c6 -39 5 -40 -17 -32 -13 5 -14 9 -5 20 6 8 9 21 5 29 -3 8 -2
15 3 15 5 0 11 -15 14 -32z m-37 -6 c-4 -3 -14 2 -24 12 -16 18 -16 18 6 6 13
-6 21 -14 18 -18z m134 -7 c0 -14 -4 -25 -10 -25 -5 0 -10 11 -10 25 0 14 5
25 10 25 6 0 10 -11 10 -25z m-55 -45 c-3 -5 -12 -10 -18 -10 -7 0 -6 4 3 10
19 12 23 12 15 0z m45 -11 c0 -4 -7 -6 -15 -3 -8 4 -15 10 -15 15 0 4 7 6 15
3 8 -4 15 -10 15 -15z m30 -9 c0 -11 -4 -20 -10 -20 -5 0 -10 9 -10 20 0 11 5
20 10 20 6 0 10 -9 10 -20z m60 -11 c0 -5 -4 -9 -10 -9 -5 0 -10 7 -10 16 0 8
5 12 10 9 6 -3 10 -10 10 -16z m-25 -50 c9 -14 -4 -27 -13 -13 -4 6 -14 14
-22 17 -10 4 -8 6 7 6 12 1 25 -4 28 -10z m19 -45 c5 -14 4 -15 -9 -4 -17 14
-19 20 -6 20 5 0 12 -7 15 -16z m31 -34 c3 -5 1 -10 -4 -10 -6 0 -11 5 -11 10
0 6 2 10 4 10 3 0 8 -4 11 -10z m69 -26 c9 -24 7 -28 -9 -14 -17 14 -20 30 -6
30 5 0 12 -7 15 -16z m186 -58 c0 -3 -4 -8 -10 -11 -5 -3 -10 -1 -10 4 0 6 5
11 10 11 6 0 10 -2 10 -4z m-20 -26 c11 -7 5 -8 -20 -4 -43 8 -51 14 -19 14
13 0 31 -5 39 -10z m187 -96 c-3 -3 -12 -4 -19 -1 -8 3 -5 6 6 6 11 1 17 -2
13 -5z m0 -40 c-3 -3 -12 -4 -19 -1 -8 3 -5 6 6 6 11 1 17 -2 13 -5z m63 -15
c0 -5 -7 -9 -15 -9 -9 0 -12 6 -9 15 6 15 24 11 24 -6z m40 -39 c0 -5 -2 -10
-4 -10 -3 0 -8 5 -11 10 -3 6 -1 10 4 10 6 0 11 -4 11 -10z m73 -12 c20 5 21
4 8 -12 -21 -25 -7 -29 30 -9 26 14 39 16 57 8 29 -13 28 -17 -7 -38 -32 -19
-61 -22 -61 -7 0 6 -6 10 -14 10 -8 0 -24 8 -37 18 -16 14 -20 24 -14 38 7 16
9 17 12 3 3 -12 11 -15 26 -11z m112 12 c3 -5 -1 -10 -10 -10 -9 0 -13 5 -10
10 3 6 8 10 10 10 2 0 7 -4 10 -10z m5 -85 c0 -8 -4 -15 -10 -15 -5 0 -10 7
-10 15 0 8 5 15 10 15 6 0 10 -7 10 -15z m1450 -760 c0 -8 -7 -15 -15 -15 -8
0 -15 -4 -15 -10 0 -5 -7 -10 -15 -10 -8 0 -15 5 -15 10 0 6 7 10 15 10 8 0
15 7 15 15 0 8 7 15 15 15 8 0 15 -7 15 -15z m228 -98 c17 0 15 -16 -3 -23 -8
-3 -27 4 -42 16 l-28 23 30 -8 c17 -4 36 -8 43 -8z m645 -207 c4 -17 2 -18
-14 -9 -22 11 -25 29 -5 29 7 0 16 -9 19 -20z m253 -171 c3 -5 -2 -12 -10 -15
-18 -7 -49 13 -41 26 6 10 43 1 51 -11z m-76 1 c0 -5 -2 -10 -4 -10 -3 0 -8 5
-11 10 -3 6 -1 10 4 10 6 0 11 -4 11 -10z m80 -102 c15 -71 22 -185 9 -153 -4
11 -8 33 -8 48 -1 15 -8 30 -16 33 -8 4 -15 14 -15 23 0 14 2 14 10 1 16 -25
11 41 -5 70 -18 31 -18 40 -2 40 8 0 18 -25 27 -62z m-43 0 c-3 -7 -5 -2 -5
12 0 14 2 19 5 13 2 -7 2 -19 0 -25z m-7693 -125 c17 -62 35 -115 39 -119 4
-4 7 -18 7 -30 0 -25 3 -24 -125 -43 -33 -5 -67 -11 -75 -13 -22 -5 -15 34 21
122 17 41 38 93 46 115 8 22 19 50 24 63 16 41 31 18 63 -95z m8036 -78 c0
-24 -5 -35 -15 -35 -8 0 -15 6 -15 13 0 6 -3 22 -6 35 -5 18 -2 22 15 22 17 0
21 -6 21 -35z m-174 -182 c-11 -11 -17 4 -9 23 7 18 8 18 11 1 2 -10 1 -21 -2
-24z m141 -45 c-3 -8 -6 -5 -6 6 -1 11 2 17 5 13 3 -3 4 -12 1 -19z m-170 -25
c-3 -10 -5 -4 -5 12 0 17 2 24 5 18 2 -7 2 -21 0 -30z"/>
<path d="M8627 15983 c-24 -23 13 -40 168 -78 325 -80 729 -289 1125 -583 252
-187 235 -172 702 -629 109 -106 202 -193 208 -193 38 0 -20 67 -307 357 -175
176 -330 329 -344 340 -14 11 -62 47 -105 79 -43 33 -85 65 -93 72 -8 8 -47
36 -88 63 -40 27 -107 72 -148 99 -41 28 -79 50 -84 50 -4 0 -14 7 -21 15 -18
21 -187 120 -318 185 -201 100 -417 178 -595 216 -77 16 -91 17 -100 7z"/>
<path d="M9190 13918 c0 -15 29 -53 76 -103 94 -99 230 -245 247 -265 10 -13
87 -109 139 -175 5 -5 42 -53 84 -105 42 -52 79 -102 82 -110 3 -8 13 -22 21
-30 8 -8 46 -58 85 -110 38 -52 73 -99 78 -105 5 -5 22 -28 38 -50 16 -22 36
-49 45 -60 8 -11 58 -78 110 -150 53 -71 128 -173 168 -225 40 -52 94 -126
121 -165 46 -65 79 -109 109 -145 6 -8 23 -30 36 -50 13 -19 26 -37 30 -40 3
-3 19 -25 36 -49 30 -44 63 -65 78 -51 15 13 -24 72 -253 381 -47 63 -99 135
-116 160 -70 98 -267 365 -292 395 -15 18 -34 42 -42 54 -13 20 -25 36 -73 95
-4 6 -47 62 -95 126 -111 148 -265 348 -289 374 -10 11 -36 43 -58 70 -63 79
-337 355 -352 355 -7 0 -13 -10 -13 -22z"/>
<path d="M11020 13853 c0 -17 29 -61 116 -174 22 -30 43 -61 47 -69 4 -8 32
-53 62 -100 81 -126 240 -449 307 -625 87 -226 145 -430 276 -960 85 -341 86
-345 124 -345 23 0 22 20 -6 130 -9 36 -43 173 -76 305 -70 289 -79 324 -90
350 -4 11 -16 52 -25 90 -45 180 -217 645 -287 775 -51 93 -120 216 -139 245
-10 17 -24 41 -31 55 -18 38 -105 165 -176 258 -41 53 -70 82 -82 82 -12 0
-20 -7 -20 -17z"/>
<path d="M4356 13230 c-14 -22 -26 -42 -26 -46 0 -3 -8 -18 -19 -32 -10 -15
-33 -65 -51 -112 -18 -47 -36 -93 -41 -102 -5 -10 -36 -100 -69 -200 -33 -101
-66 -203 -75 -228 -65 -198 -152 -629 -185 -920 -21 -185 -14 -424 20 -690 6
-41 15 -113 21 -160 6 -47 15 -103 19 -125 57 -262 55 -256 120 -462 40 -130
68 -183 96 -183 27 0 22 39 -22 168 -20 57 -33 110 -30 118 3 7 2 14 -3 14 -5
0 -11 10 -14 23 -3 12 -15 56 -27 97 -65 228 -120 624 -120 862 0 141 25 546
36 580 3 9 11 52 18 95 32 179 113 523 144 603 3 8 13 42 23 75 20 70 85 261
98 290 5 11 15 38 24 60 48 131 65 167 105 227 46 69 47 88 8 88 -16 0 -32
-13 -50 -40z"/>
<path d="M5870 10294 c0 -10 123 -135 183 -185 60 -51 77 -58 77 -35 0 21
-217 226 -240 226 -11 0 -20 -3 -20 -6z"/>
<path d="M10277 10134 c-4 -4 -7 -55 -8 -113 -1 -58 -4 -153 -8 -211 -4 -58
-5 -111 -3 -117 6 -18 29 -16 36 3 14 36 27 208 24 319 -2 99 -6 120 -18 123
-9 1 -19 0 -23 -4z"/>
<path d="M5230 8336 c0 -15 45 -77 142 -192 126 -150 298 -277 298 -220 0 8
-39 45 -87 82 -95 74 -146 126 -241 246 -69 87 -112 119 -112 84z"/>
<path d="M7465 8300 c-17 -27 -17 -309 -1 -572 9 -142 19 -266 23 -275 13 -38
89 -126 140 -163 43 -30 76 -43 151 -61 53 -12 121 -32 151 -45 64 -29 61 -28
61 -5 0 23 -90 63 -191 86 -99 22 -133 40 -199 103 l-60 57 -10 85 c-6 47 -17
231 -25 410 -15 334 -23 407 -40 380z"/>
<path d="M8205 7452 c-39 -24 -57 -47 -53 -67 2 -13 10 -11 43 14 22 17 57 34
78 37 39 7 48 18 21 28 -28 11 -58 6 -89 -12z"/>
<path d="M9379 6661 c-75 -77 -96 -91 -289 -196 -146 -79 -219 -108 -380 -151
-36 -9 -76 -24 -89 -32 -22 -13 -23 -15 -6 -24 24 -14 113 5 250 52 125 42
195 76 344 164 132 78 208 139 242 196 59 98 27 94 -72 -9z"/>
<path d="M7700 6250 c16 -30 95 -71 163 -86 186 -40 616 11 561 66 -7 7 -29 7
-67 -1 -91 -16 -323 -26 -430 -18 -71 6 -112 15 -153 33 -70 32 -89 34 -74 6z"/>
<path d="M4611 8124 c0 -11 3 -14 6 -6 3 7 2 16 -1 19 -3 4 -6 -2 -5 -13z"/>
<path d="M3573 8050 c0 -30 2 -43 4 -27 2 15 2 39 0 55 -2 15 -4 2 -4 -28z"/>
<path d="M3951 7694 c0 -11 3 -14 6 -6 3 7 2 16 -1 19 -3 4 -6 -2 -5 -13z"/>
<path d="M4990 7564 c0 -8 5 -12 10 -9 6 4 8 11 5 16 -9 14 -15 11 -15 -7z"/>
<path d="M3976 7545 c-9 -26 -7 -32 5 -12 6 10 9 21 6 23 -2 3 -7 -2 -11 -11z"/>
<path d="M4130 7531 c0 -6 5 -13 10 -16 6 -3 10 1 10 9 0 9 -4 16 -10 16 -5 0
-10 -4 -10 -9z"/>
<path d="M3999 7495 c-4 -5 -9 -22 -13 -37 -5 -23 -3 -26 10 -21 15 5 16 1 11
-30 -3 -20 -1 -39 4 -42 5 -4 9 9 8 27 0 49 -14 114 -20 103z"/>
<path d="M3951 7454 c0 -11 3 -14 6 -6 3 7 2 16 -1 19 -3 4 -6 -2 -5 -13z"/>
<path d="M4121 7440 c0 -29 1 -32 10 -17 7 11 7 23 0 35 -9 14 -10 11 -10 -18z"/>
<path d="M4449 7403 c0 -10 -2 -28 -3 -40 -1 -12 1 -28 6 -35 4 -8 8 9 8 40 0
28 -2 52 -5 52 -3 0 -5 -8 -6 -17z"/>
<path d="M4165 7320 c-3 -5 -1 -10 4 -10 6 0 11 5 11 10 0 6 -2 10 -4 10 -3 0
-8 -4 -11 -10z"/>
<path d="M4780 7306 c0 -31 6 -34 13 -6 3 11 1 23 -4 26 -5 3 -9 -6 -9 -20z"/>
<path d="M3711 7224 c0 -11 3 -14 6 -6 3 7 2 16 -1 19 -3 4 -6 -2 -5 -13z"/>
<path d="M3642 7170 c0 -19 2 -27 5 -17 2 9 2 25 0 35 -3 9 -5 1 -5 -18z"/>
<path d="M4651 7184 c0 -11 3 -14 6 -6 3 7 2 16 -1 19 -3 4 -6 -2 -5 -13z"/>
<path d="M4722 7145 c0 -16 2 -22 5 -12 2 9 2 23 0 30 -3 6 -5 -1 -5 -18z"/>
<path d="M3690 7101 c0 -5 5 -13 10 -16 6 -3 10 -2 10 4 0 5 -4 13 -10 16 -5
3 -10 2 -10 -4z"/>
<path d="M4060 7099 c0 -5 5 -7 10 -4 6 3 10 8 10 11 0 2 -4 4 -10 4 -5 0 -10
-5 -10 -11z"/>
<path d="M4725 7080 c-3 -5 -1 -10 4 -10 6 0 11 5 11 10 0 6 -2 10 -4 10 -3 0
-8 -4 -11 -10z"/>
<path d="M4122 7060 c0 -14 2 -19 5 -12 2 6 2 18 0 25 -3 6 -5 1 -5 -13z"/>
<path d="M3692 7058 c-6 -6 -12 -28 -11 -47 0 -20 3 -29 6 -21 2 8 9 25 15 37
14 28 7 48 -10 31z"/>
<path d="M4081 7034 c0 -11 3 -14 6 -6 3 7 2 16 -1 19 -3 4 -6 -2 -5 -13z"/>
<path d="M4281 7034 c0 -11 3 -14 6 -6 3 7 2 16 -1 19 -3 4 -6 -2 -5 -13z"/>
<path d="M3711 6998 c-1 -16 4 -28 9 -28 12 0 12 8 0 35 -8 18 -9 17 -9 -7z"/>
<path d="M4170 6960 c0 -5 5 -10 10 -10 6 0 10 5 10 10 0 6 -4 10 -10 10 -5 0
-10 -4 -10 -10z"/>
<path d="M3710 6905 c1 -26 2 -28 11 -12 8 14 8 22 0 30 -8 8 -11 3 -11 -18z"/>
<path d="M4789 6898 c4 -28 6 -29 9 -9 2 13 0 27 -5 32 -6 6 -7 -3 -4 -23z"/>
<path d="M4350 6875 c0 -8 5 -15 10 -15 6 0 10 7 10 15 0 8 -4 15 -10 15 -5 0
-10 -7 -10 -15z"/>
<path d="M4820 6830 c0 -5 5 -10 11 -10 5 0 7 5 4 10 -3 6 -8 10 -11 10 -2 0
-4 -4 -4 -10z"/>
<path d="M4200 6781 c-11 -23 -16 -41 -10 -41 12 0 44 69 36 77 -2 3 -14 -13
-26 -36z"/>
<path d="M4986 6797 c3 -10 9 -15 12 -12 3 3 0 11 -7 18 -10 9 -11 8 -5 -6z"/>
<path d="M4235 6760 c-4 -17 -11 -28 -16 -24 -5 3 -9 -11 -9 -32 0 -31 -3 -36
-20 -31 -11 3 -20 1 -20 -3 0 -19 66 -15 98 6 8 5 8 55 1 60 -5 3 -9 14 -9 24
0 32 -18 32 -25 0z m0 -80 c3 -5 1 -10 -4 -10 -6 0 -11 5 -11 10 0 6 2 10 4
10 3 0 8 -4 11 -10z"/>
<path d="M5021 6754 c0 -11 3 -14 6 -6 3 7 2 16 -1 19 -3 4 -6 -2 -5 -13z"/>
<path d="M4875 6741 c-3 -5 -1 -12 5 -16 5 -3 10 1 10 9 0 18 -6 21 -15 7z"/>
<path d="M4917 6743 c-3 -4 6 -28 19 -53 13 -25 24 -37 24 -27 0 22 -37 91
-43 80z"/>
<path d="M5260 6690 c0 -5 5 -10 11 -10 5 0 7 5 4 10 -3 6 -8 10 -11 10 -2 0
-4 -4 -4 -10z"/>
<path d="M4160 6610 c0 -22 5 -40 10 -40 6 0 10 14 10 30 0 21 5 30 16 30 8 0
12 5 9 10 -3 6 -15 10 -26 10 -16 0 -19 -7 -19 -40z"/>
<path d="M5560 6631 c0 -5 7 -12 16 -15 24 -9 27 -7 10 9 -17 17 -26 19 -26 6z"/>
<path d="M4995 6620 c3 -5 10 -10 16 -10 5 0 9 5 9 10 0 6 -7 10 -16 10 -8 0
-12 -4 -9 -10z"/>
<path d="M5330 6623 c1 -16 39 -57 46 -50 5 4 -4 19 -19 33 -15 14 -27 21 -27
17z"/>
<path d="M5125 6520 c3 -5 10 -10 16 -10 5 0 9 5 9 10 0 6 -7 10 -16 10 -8 0
-12 -4 -9 -10z"/>
<path d="M5050 6502 c0 -17 13 -22 27 -11 10 9 13 8 13 -4 0 -17 28 -43 36
-34 11 11 -31 56 -53 57 -13 0 -23 -4 -23 -8z"/>
<path d="M5521 6444 c0 -11 3 -14 6 -6 3 7 2 16 -1 19 -3 4 -6 -2 -5 -13z"/>
<path d="M5140 6410 c0 -5 5 -10 10 -10 6 0 10 5 10 10 0 6 -4 10 -10 10 -5 0
-10 -4 -10 -10z"/>
<path d="M5520 6356 c0 -9 5 -16 10 -16 6 0 10 4 10 9 0 6 -4 13 -10 16 -5 3
-10 -1 -10 -9z"/>
<path d="M4340 6249 c0 -9 7 -22 15 -29 19 -16 19 0 0 26 -12 16 -14 16 -15 3z"/>
<path d="M4399 6221 c-6 -17 12 -61 25 -61 4 0 6 7 2 15 -3 8 -1 15 4 15 14 0
21 -18 10 -25 -20 -12 -10 -30 18 -31 15 -1 38 -5 52 -8 23 -7 23 -6 5 5 -11
7 -35 27 -53 46 -18 18 -37 31 -42 28 -5 -3 -10 3 -12 12 -3 14 -5 15 -9 4z"/>
<path d="M4515 6210 c-8 -13 -1 -24 14 -19 6 3 7 10 2 18 -6 10 -10 10 -16 1z"/>
<path d="M4460 6110 c0 -5 7 -10 16 -10 8 0 12 5 9 10 -3 6 -10 10 -16 10 -5
0 -9 -4 -9 -10z"/>
<path d="M5930 6086 c0 -9 5 -16 10 -16 6 0 10 4 10 9 0 6 -4 13 -10 16 -5 3
-10 -1 -10 -9z"/>
<path d="M5771 6076 c-11 -13 -11 -16 2 -16 8 0 17 -9 20 -20 5 -20 27 -28 27
-10 0 6 -4 10 -9 10 -5 0 -13 12 -18 26 -8 23 -10 25 -22 10z"/>
<path d="M5965 6060 c3 -5 8 -10 11 -10 2 0 4 5 4 10 0 6 -5 10 -11 10 -5 0
-7 -4 -4 -10z"/>
<path d="M5836 6045 c4 -8 10 -15 15 -15 4 0 6 7 3 15 -4 8 -10 15 -15 15 -4
0 -6 -7 -3 -15z"/>
<path d="M6020 6030 c0 -5 5 -10 10 -10 6 0 10 5 10 10 0 6 -4 10 -10 10 -5 0
-10 -4 -10 -10z"/>
<path d="M6056 6002 c-3 -6 -1 -14 5 -17 15 -10 25 3 12 16 -7 7 -13 7 -17 1z"/>
<path d="M5860 5987 c0 -19 16 -31 24 -18 3 5 -1 14 -9 21 -12 10 -15 10 -15
-3z"/>
<path d="M5880 5940 c0 -5 5 -10 11 -10 5 0 7 5 4 10 -3 6 -8 10 -11 10 -2 0
-4 -4 -4 -10z"/>
<path d="M5930 5912 c0 -18 5 -32 10 -32 6 0 8 11 4 28 -10 39 -14 40 -14 4z"/>
<path d="M6168 5853 c7 -3 16 -2 19 1 4 3 -2 6 -13 5 -11 0 -14 -3 -6 -6z"/>
<path d="M6595 5510 c-3 -5 1 -10 9 -10 9 0 16 5 16 10 0 6 -4 10 -9 10 -6 0
-13 -4 -16 -10z"/>
<path d="M7278 4653 c7 -3 16 -2 19 1 4 3 -2 6 -13 5 -11 0 -14 -3 -6 -6z"/>
<path d="M5284 6326 c-4 -10 -2 -22 4 -28 8 -8 13 -7 18 6 4 10 2 22 -4 28 -8
8 -13 7 -18 -6z"/>
<path d="M4290 5984 c0 -31 2 -35 15 -24 8 7 15 23 15 36 0 15 -6 24 -15 24
-11 0 -15 -11 -15 -36z"/>
<path d="M4460 5950 c0 -5 5 -10 11 -10 5 0 7 5 4 10 -3 6 -8 10 -11 10 -2 0
-4 -4 -4 -10z"/>
<path d="M4390 5400 c0 -5 5 -10 10 -10 6 0 10 5 10 10 0 6 -4 10 -10 10 -5 0
-10 -4 -10 -10z"/>
<path d="M4900 5315 c0 -8 4 -15 10 -15 5 0 7 7 4 15 -4 8 -8 15 -10 15 -2 0
-4 -7 -4 -15z"/>
<path d="M4881 5274 c0 -11 3 -14 6 -6 3 7 2 16 -1 19 -3 4 -6 -2 -5 -13z"/>
<path d="M4920 5270 c0 -5 5 -10 11 -10 5 0 7 5 4 10 -3 6 -8 10 -11 10 -2 0
-4 -4 -4 -10z"/>
<path d="M4605 5240 c10 -11 22 -17 28 -13 6 4 3 12 -8 20 -28 20 -41 16 -20
-7z"/>
<path d="M4790 5130 c0 -5 7 -10 16 -10 8 0 12 5 9 10 -3 6 -10 10 -16 10 -5
0 -9 -4 -9 -10z"/>
<path d="M4700 5126 c0 -2 7 -7 16 -10 8 -3 12 -2 9 4 -6 10 -25 14 -25 6z"/>
<path d="M4992 5100 c0 -14 2 -19 5 -12 2 6 2 18 0 25 -3 6 -5 1 -5 -13z"/>
<path d="M4830 5100 c0 -5 5 -10 11 -10 5 0 7 5 4 10 -3 6 -8 10 -11 10 -2 0
-4 -4 -4 -10z"/>
<path d="M4910 5010 c0 -5 6 -10 14 -10 8 0 18 5 21 10 3 6 -3 10 -14 10 -12
0 -21 -4 -21 -10z"/>
<path d="M5105 4999 c-9 -14 -2 -20 14 -10 8 6 9 11 3 15 -6 3 -14 1 -17 -5z"/>
<path d="M5120 4900 c0 -5 12 -10 26 -10 14 0 23 4 19 10 -3 6 -15 10 -26 10
-10 0 -19 -4 -19 -10z"/>
<path d="M5190 4879 c0 -5 5 -7 10 -4 6 3 10 8 10 11 0 2 -4 4 -10 4 -5 0 -10
-5 -10 -11z"/>
<path d="M5155 4860 c-3 -5 3 -10 14 -10 12 0 21 -5 21 -12 0 -6 3 -8 6 -5 8
7 -14 37 -27 37 -4 0 -11 -4 -14 -10z"/>
<path d="M5230 4845 c0 -9 6 -12 15 -9 8 4 15 10 15 15 0 5 -7 9 -15 9 -8 0
-15 -7 -15 -15z"/>
<path d="M13102 5228 c3 -7 15 -14 29 -16 23 -2 23 -2 5 13 -24 18 -39 20 -34
3z"/>
<path d="M13220 4652 c0 -10 22 -32 32 -32 15 0 8 28 -8 34 -21 8 -24 8 -24
-2z"/>
<path d="M13582 4319 c-7 -12 -11 -24 -7 -27 9 -9 40 13 43 32 5 23 -21 20
-36 -5z"/>
<path d="M16167 16883 c-8 -7 11 -33 24 -33 5 0 9 9 9 20 0 19 -20 27 -33 13z"/>
<path d="M15710 16260 l0 -60 30 0 30 0 0 60 0 60 -30 0 -30 0 0 -60z"/>
<path d="M15800 16190 c0 -5 25 -10 55 -10 30 0 55 5 55 10 0 6 -25 10 -55 10
-30 0 -55 -4 -55 -10z"/>
<path d="M15460 15710 c0 -34 10 -38 33 -12 24 26 21 42 -8 42 -21 0 -25 -5
-25 -30z"/>
<path d="M15230 15620 c0 -5 25 -10 55 -10 30 0 55 5 55 10 0 6 -25 10 -55 10
-30 0 -55 -4 -55 -10z"/>
<path d="M14700 15120 c0 -33 4 -60 10 -60 6 0 10 27 10 60 0 33 -4 60 -10 60
-6 0 -10 -27 -10 -60z"/>
<path d="M14430 14786 c0 -20 13 -27 30 -15 13 8 13 10 0 19 -21 14 -30 12
-30 -4z"/>
<path d="M13750 14370 c0 -5 25 -10 55 -10 30 0 55 5 55 10 0 6 -25 10 -55 10
-30 0 -55 -4 -55 -10z"/>
<path d="M13042 13430 c0 -14 2 -19 5 -12 2 6 2 18 0 25 -3 6 -5 1 -5 -13z"/>
<path d="M12995 13410 c3 -5 8 -10 11 -10 2 0 4 5 4 10 0 6 -5 10 -11 10 -5 0
-7 -4 -4 -10z"/>
<path d="M13027 13329 c4 -13 8 -18 11 -10 2 7 -1 18 -6 23 -8 8 -9 4 -5 -13z"/>
<path d="M13080 13228 c0 -8 9 -23 20 -33 11 -10 20 -15 20 -11 0 4 -9 19 -20
33 -13 17 -20 20 -20 11z"/>
<path d="M13120 13230 c0 -5 5 -10 10 -10 6 0 10 5 10 10 0 6 -4 10 -10 10 -5
0 -10 -4 -10 -10z"/>
<path d="M13151 13184 c0 -11 3 -14 6 -6 3 7 2 16 -1 19 -3 4 -6 -2 -5 -13z"/>
<path d="M13225 12980 c3 -5 8 -10 11 -10 2 0 4 5 4 10 0 6 -5 10 -11 10 -5 0
-7 -4 -4 -10z"/>
<path d="M12941 6354 c0 -11 3 -14 6 -6 3 7 2 16 -1 19 -3 4 -6 -2 -5 -13z"/>
<path d="M13080 6164 c0 -8 5 -12 10 -9 6 4 8 11 5 16 -9 14 -15 11 -15 -7z"/>
<path d="M13125 6160 c3 -5 10 -10 16 -10 5 0 9 5 9 10 0 6 -7 10 -16 10 -8 0
-12 -4 -9 -10z"/>
<path d="M13176 6155 c4 -8 10 -12 15 -9 14 8 10 24 -6 24 -9 0 -12 -6 -9 -15z"/>
<path d="M13235 6020 c3 -5 13 -10 21 -10 8 0 14 5 14 10 0 6 -9 10 -21 10
-11 0 -17 -4 -14 -10z"/>
<path d="M13315 6020 c3 -5 8 -10 11 -10 2 0 4 5 4 10 0 6 -5 10 -11 10 -5 0
-7 -4 -4 -10z"/>
<path d="M13207 5923 c-4 -3 -7 -11 -7 -17 0 -6 5 -5 12 2 6 6 9 14 7 17 -3 3
-9 2 -12 -2z"/>
<path d="M13185 5859 c-11 -16 15 -29 45 -22 44 10 42 17 -7 27 -20 5 -34 3
-38 -5z"/>
<path d="M13430 5245 c-10 -12 -10 -15 4 -15 9 0 16 7 16 15 0 8 -2 15 -4 15
-2 0 -9 -7 -16 -15z"/>
<path d="M13490 5245 c-8 -9 -8 -15 -2 -15 12 0 26 19 19 26 -2 2 -10 -2 -17
-11z"/>
<path d="M13358 5223 c-30 -15 -37 -33 -13 -33 8 0 15 4 15 8 0 5 10 13 22 19
12 5 18 12 12 15 -5 2 -21 -2 -36 -9z"/>
<path d="M14583 3783 c20 -2 54 -2 75 0 20 2 3 4 -38 4 -41 0 -58 -2 -37 -4z"/>
<path d="M14892 3640 c0 -14 2 -19 5 -12 2 6 2 18 0 25 -3 6 -5 1 -5 -13z"/>
<path d="M15202 3193 c-17 -7 -5 -23 19 -23 10 0 19 7 19 15 0 15 -14 18 -38
8z"/>
<path d="M15180 3140 c19 -13 30 -13 30 0 0 6 -10 10 -22 10 -19 0 -20 -2 -8
-10z"/>
<path d="M15518 2993 c-32 -8 -19 -28 16 -28 25 0 36 5 40 18 4 17 -15 21 -56
10z"/>
<path d="M15590 2980 c0 -5 7 -10 16 -10 8 0 12 5 9 10 -3 6 -10 10 -16 10 -5
0 -9 -4 -9 -10z"/>
<path d="M15647 2973 c-12 -12 -7 -33 8 -33 17 0 19 9 7 28 -5 7 -11 9 -15 5z"/>
<path d="M15576 2942 c-2 -4 7 -12 20 -19 13 -6 26 -8 29 -4 2 5 -7 13 -20 19
-13 6 -26 8 -29 4z"/>
<path d="M15665 2901 c-3 -11 -14 -22 -23 -25 -9 -2 -1 -4 18 -3 28 2 34 -2
32 -16 -2 -9 2 -17 8 -17 5 0 10 4 10 9 0 5 8 11 18 13 14 3 13 8 -12 31 -34
32 -43 33 -51 8z"/>
<path d="M15770 2800 c19 -13 30 -13 30 0 0 6 -10 10 -22 10 -19 0 -20 -2 -8
-10z"/>
<path d="M15988 2693 c7 -3 16 -2 19 1 4 3 -2 6 -13 5 -11 0 -14 -3 -6 -6z"/>
<path d="M16125 2630 c-4 -6 -11 -8 -16 -5 -5 4 -9 1 -9 -4 0 -14 10 -13 40 4
18 10 20 14 8 15 -9 0 -20 -5 -23 -10z"/>
<path d="M16170 2620 c0 -5 7 -10 15 -10 8 0 15 5 15 10 0 6 -7 10 -15 10 -8
0 -15 -4 -15 -10z"/>
<path d="M16710 2540 c0 -5 7 -10 16 -10 8 0 12 5 9 10 -3 6 -10 10 -16 10 -5
0 -9 -4 -9 -10z"/>
<path d="M17198 2293 c7 -3 16 -2 19 1 4 3 -2 6 -13 5 -11 0 -14 -3 -6 -6z"/>
<path d="M17128 2273 c7 -3 16 -2 19 1 4 3 -2 6 -13 5 -11 0 -14 -3 -6 -6z"/>
<path d="M17218 2263 c6 -2 18 -2 25 0 6 3 1 5 -13 5 -14 0 -19 -2 -12 -5z"/>
<path d="M17170 2246 c0 -2 9 -6 20 -9 11 -3 20 -1 20 4 0 5 -9 9 -20 9 -11 0
-20 -2 -20 -4z"/>
<path d="M17400 2141 c0 -5 14 -16 30 -25 32 -16 40 -7 14 18 -17 17 -44 21
-44 7z"/>
</g>
</svg>
